<svg height="30" viewBox="0 0 30 30" width="30" xmlns="http://www.w3.org/2000/svg"><path d="m0 0h30v30h-30z" fill="none"/><path d="m22.094 6.684a4.107 4.107 0 0 0 -2.356-2.356 6.87 6.87 0 0 0 -2.306-.428c-1.309-.06-1.7-.073-5.017-.073s-3.707.014-5.015.073a6.875 6.875 0 0 0 -2.306.427 3.85 3.85 0 0 0 -1.428.929 3.85 3.85 0 0 0 -.929 1.428 6.867 6.867 0 0 0 -.427 2.305c-.06 1.309-.073 1.7-.073 5.017s.013 3.708.073 5.017a6.869 6.869 0 0 0 .427 2.306 3.85 3.85 0 0 0 .929 1.428 3.85 3.85 0 0 0 1.428.929 6.875 6.875 0 0 0 2.306.427c1.309.06 1.7.073 5.017.073s3.708-.013 5.017-.073a6.87 6.87 0 0 0 2.306-.427 4.107 4.107 0 0 0 2.356-2.356 6.863 6.863 0 0 0 .428-2.306c.06-1.309.072-1.7.072-5.017s-.012-3.708-.072-5.017a6.861 6.861 0 0 0 -.428-2.305m-9.679 13.7a6.376 6.376 0 1 1 6.376-6.376 6.376 6.376 0 0 1 -6.376 6.376m6.626-11.516a1.49 1.49 0 1 1 1.49-1.49 1.49 1.49 0 0 1 -1.49 1.49m-6.628 1a4.139 4.139 0 1 0 4.139 4.139 4.138 4.138 0 0 0 -4.139-4.139m12.341 9.258a9.135 9.135 0 0 1 -.577 3.014 6.35 6.35 0 0 1 -3.632 3.631 9.119 9.119 0 0 1 -3.014.577c-1.324.06-1.747.075-5.119.075s-3.795-.015-5.119-.075a9.117 9.117 0 0 1 -3.013-.577 6.083 6.083 0 0 1 -2.2-1.432 6.087 6.087 0 0 1 -1.432-2.2 9.116 9.116 0 0 1 -.577-3.014c-.058-1.326-.073-1.748-.073-5.119s.015-3.795.075-5.119a9.115 9.115 0 0 1 .577-3.014 6.085 6.085 0 0 1 1.432-2.2 6.093 6.093 0 0 1 2.2-1.432 9.114 9.114 0 0 1 3.016-.576c1.324-.061 1.747-.075 5.119-.075s3.795.014 5.119.075a9.112 9.112 0 0 1 3.014.577 6.09 6.09 0 0 1 2.2 1.432 6.094 6.094 0 0 1 1.432 2.2 9.134 9.134 0 0 1 .577 3.014c.061 1.324.075 1.747.075 5.119s-.014 3.794-.075 5.119" transform="translate(2.586 .993)"/></svg>