<svg xmlns="http://www.w3.org/2000/svg" width="30" height="30" viewBox="0 0 30 30">
  <g id="グループ_2845" data-name="グループ 2845" transform="translate(19012 436)">
    <rect id="長方形_1747" data-name="長方形 1747" width="30" height="30" transform="translate(-19012 -436)" fill="none"/>
    <g id="グループ_2170" data-name="グループ 2170" transform="translate(-19010.75 -430.687)">
      <path id="中マド_3" data-name="中マド 3" d="M13.749,19.374c-.086,0-8.623-.007-10.744-.578A3.455,3.455,0,0,1,.574,16.348,36.483,36.483,0,0,1,0,9.687,36.474,36.474,0,0,1,.574,3.026,3.457,3.457,0,0,1,3,.578C5.126.007,13.663,0,13.749,0s8.623.007,10.744.578a3.457,3.457,0,0,1,2.431,2.448A36.474,36.474,0,0,1,27.5,9.687a36.483,36.483,0,0,1-.574,6.661A3.455,3.455,0,0,1,24.493,18.8C22.371,19.367,13.835,19.374,13.749,19.374ZM10.936,5.6v8.177l7.187-4.088L10.936,5.6Z" transform="translate(0 0)" stroke="rgba(0,0,0,0)" stroke-miterlimit="10" stroke-width="1"/>
    </g>
  </g>
</svg>
