<svg height="58.843" viewBox="0 0 387.063 58.843" width="387.063" xmlns="http://www.w3.org/2000/svg" xmlns:xlink="http://www.w3.org/1999/xlink"><linearGradient id="a" gradientUnits="objectBoundingBox" x1=".5" x2=".5" y1="1"><stop offset="0" stop-color="#e62310"/><stop offset=".163" stop-color="#e72c0f"/><stop offset=".429" stop-color="#e9440b"/><stop offset=".762" stop-color="#ed6c05"/><stop offset="1" stop-color="#f08c00"/></linearGradient><rect fill="#db1d31" height="25.459" rx="8" width="40.371" x="346.691"/><path d="m4.8 5.9h4.37l4.547-14.461h-3.833l-2.725 10.788h-.164l-2.766-10.788h-4.047zm14.749-9.947q0-.038 0-.1t0-.12a1.913 1.913 0 0 1 .222-.906 1.728 1.728 0 0 1 .639-.676 1.863 1.863 0 0 1 .99-.251 1.938 1.938 0 0 1 .954.231 1.76 1.76 0 0 1 .66.623 1.65 1.65 0 0 1 .241.883 2.3 2.3 0 0 1 -.239 1.035 4.362 4.362 0 0 1 -.6.905q-.364.424-.746.815l-5.199 5.368v2.14h10.429v-2.754h-5.722v-.146l2.922-3.114q.6-.633 1.188-1.292a6.534 6.534 0 0 0 .991-1.457 4.088 4.088 0 0 0 .4-1.85 3.6 3.6 0 0 0 -.642-2.1 4.376 4.376 0 0 0 -1.812-1.47 6.5 6.5 0 0 0 -2.753-.542 6.133 6.133 0 0 0 -2.325.4 4.6 4.6 0 0 0 -1.613 1.063 4.377 4.377 0 0 0 -.943 1.475 4.59 4.59 0 0 0 -.309 1.644v.191z" fill="#fff" transform="translate(353.185 13.829)"/><path d="m61.46 39.966v-1.121h-16.388v1.118h-4.1v-3.574h-7.144v-3.618h-3.618v-3.618h-3.1v10.807h-4.048v-10.807h-3.136v3.618h-3.573v3.618h-7.193v3.574h-4.1v-4.1h3.619v-1.575h-8.679v-.98h8.679v-1.016h7.191v-3.136h-10.807v-4.056h18v-3.091h-7.193v-18.436h7.192v-3.573h4.052v3.571h7.192v1.386h2.986v.98h-2.985v16.07h-7.193v3.093h10.286v-3.573h3.573v-3.137h-3.573v-4.052h4.052v3.573h3.619v4.1h-3.618v3.089h3.619v1.12h4.37v.98h-4.37v1.956h-10.765v3.137h7.146v3.573h3.619v2h16.388v-5.574h3.618v-22.154h-7.817v-.98h7.817v-9.158h4.1v3.573h10.284v-3.573h4.052v3.573h10.286v-3.573h4.052v3.573h3.615v.655h6.933v.98h-6.934v2.418h-32.29v10.286h3.094v-7.147h4.052v7.146h3.615v4.1h-4.1v-3.621h-3.1v3.619h-3.565v10.766h-3.618v5.09h1.61v.981h-1.61v1.121zm-41.537-29.2v7.146h10.287v-10.283h-10.287zm48.77 29.2v-4.1h14.339v-6.71h-10.765v-4.056h10.765v-14.335h4.052v7.146h3.136v-7.146h4.052v7.146h7.2v1.577h3.628v.98h-3.634v1.541h-7.666v-3.619h-3.1v3.619h-3.616v3.091h10.765v4.052h-10.765v6.71h6.71v-3.57h4.053v3.573h3.622v4.1zm-63.63-17.957v-4.1h3.619v-1.341h-5.312v-.98h5.312v-1.249h4.094v4.052h-3.616v3.618zm32.337-10.765v-4.1h3.573v-3.57h4.1v4.052h-3.621v3.618zm-28.718 0v-3.618h-3.619v-4.052h4.1v3.573h3.615v4.1z" transform="translate(.002 1)"/><ellipse cx="4.216" cy="4.216" fill="url(#a)" rx="4.216" ry="4.216" transform="translate(20.853 9.554)"/><path d="m0 9.134v-8.934h5.36v1.787h-3.573v1.786h3.573v1.787h-3.573v3.574zm3.573-3.574h1.787v1.787h-1.787zm1.787-3.573h1.787v1.786h-1.787zm0 5.36h1.787v1.787h-1.787z" transform="translate(5.062 49.709)"/><path d="m56.67 9.134v-7.147h1.787v1.786h3.573v-1.786h1.787v7.147h-1.787v-3.574h-3.573v3.574zm1.787-8.934v1.787h3.573v-1.787z" transform="translate(-33.395 49.709)"/><path d="m115.277 5.56v3.574h-1.787v-8.934h1.787v3.573h1.787v1.787zm1.787-3.573h1.787v1.786h-1.787zm0 3.573h1.787v1.787h-1.787zm1.786-5.36h1.787v1.787h-1.787zm0 7.147h1.787v1.787h-1.787z" transform="translate(-71.955 49.709)"/><path d="m170.07.2h1.787v7.147h-1.787zm5.36 8.934h-3.573v-1.787h3.573zm0-8.934h1.787v7.147h-1.787z" transform="translate(-110.356 49.709)"/><path d="m232.01.2v3.573h-1.787v-1.786h-3.573v-1.787zm-5.36 8.934v-3.574h1.787v1.787h3.573v1.787zm1.787-5.36h1.787v1.786h-1.787z" transform="translate(-148.752 49.709)"/><path d="m277.76 9.134v-7.147h1.787v1.786h3.573v-1.786h1.787v7.147h-1.787v-3.574h-3.573v3.574zm1.787-8.934v1.787h3.573v-1.787z" transform="translate(-183.438 49.709)"/><path d="m1.015 15.467h5.54v-8.05c0-2.933-.489-6.257-.75-8.962h.163l2.379 5.312 6 11.7h5.931v-24.246h-5.54v8.017a76.44 76.44 0 0 0 .779 8.962h-.163l-2.379-5.378-6.029-11.601h-5.931zm25.875 0h5.833v-9.256h8.277v-4.855h-8.277v-5.312h9.646v-4.823h-15.479zm25.354 0h5.833v-19.423h6.583v-4.823h-18.967v4.823h6.55zm-51.229 33.14h5.214v-8.307a80.559 80.559 0 0 0 -.75-8.408h.13l1.955 5.8 3.291 8.864h3.195l3.259-8.864 2.02-5.8h.13a80.559 80.559 0 0 0 -.75 8.408v8.31h5.312v-24.249h-6.321l-3.715 10.461c-.456 1.4-.847 2.933-1.336 4.432h-.163c-.456-1.5-.847-3.031-1.336-4.432l-3.85-10.461h-6.285zm34.935-10.07.521-2.053c.619-2.412 1.271-5.247 1.858-7.789h.13c.652 2.477 1.271 5.377 1.923 7.789l.521 2.053zm7.463 10.07h6.127l-7.529-24.246h-6.974l-7.528 24.246h5.931l1.4-5.573h7.169zm15.479-19.651h2.608c2.77 0 4.236.75 4.236 3.031s-1.466 3.487-4.236 3.487h-2.608zm13.784 19.651-5.41-9.614a7.177 7.177 0 0 0 4.171-7.006c0-5.866-4.3-7.626-9.483-7.626h-8.9v24.246h5.833v-8.538h2.8l4.465 8.538zm4.432 0h5.833v-6.355l2.64-3.585 5.7 9.939h6.387l-8.7-14.534 7.332-9.711h-6.384l-6.876 9.581h-.1v-9.581h-5.831zm24.05 0h15.742v-4.888h-9.907v-5.149h8.114v-4.888h-8.114v-4.5h9.548v-4.821h-15.382zm26.2 0h5.833v-19.422h6.583v-4.824h-18.965v4.823h6.55zm17.141 0h5.833v-8.049h2.835c5.116 0 9.581-2.542 9.581-8.31 0-6-4.4-7.886-9.744-7.886h-8.504zm5.833-12.644v-7.007h2.379c2.8 0 4.367.847 4.367 3.291 0 2.379-1.369 3.715-4.2 3.715zm17.533 12.644h15.251v-4.888h-9.416v-19.358h-5.833zm25.517-10.07.521-2.053c.619-2.412 1.271-5.247 1.858-7.789h.13c.652 2.477 1.271 5.377 1.923 7.789l.521 2.053zm7.463 10.07h6.127l-7.528-24.246h-6.974l-7.528 24.246h5.931l1.4-5.573h7.169zm19.52.456a10.09 10.09 0 0 0 7.919-3.585l-3.063-3.65a6.3 6.3 0 0 1 -4.627 2.216c-3.422 0-5.638-2.8-5.638-7.626 0-4.725 2.574-7.528 5.7-7.528a6.014 6.014 0 0 1 4.2 1.89l3.063-3.715a10.328 10.328 0 0 0 -7.365-3.161c-6.159 0-11.569 4.628-11.569 12.709.008 8.214 5.223 12.45 11.382 12.45zm12.449-.456h15.74v-4.888h-9.907v-5.149h8.115v-4.888h-8.115v-4.5h9.553v-4.821h-15.385z" fill="#db1d31" opacity=".996" transform="translate(137.032 9.78)"/></svg>