<svg width="835" height="270" viewBox="0 0 835 270" fill="none" xmlns="http://www.w3.org/2000/svg">
<g clip-path="url(#clip0_0_3)">
<path fill-rule="evenodd" clip-rule="evenodd" d="M121.39 102.823H128.537V58.599H113.098V57.599H128.537V39.042H136.629V46.1H156.946V39.042H164.946V46.1H185.263V39.042H193.263V46.1H200.403V47.861H214.103V48.861H200.403V54.1H136.629V74.42H142.741V60.305H150.741V74.42H157.89V82.512H149.79V75.366H143.678V82.513H136.62V103.775H129.473V114.298H132.656V115.298H129.473V117.975H121.39V115.298H89.019V117.974H80.927V110.916H66.808V103.769H59.661V96.622H53.549V117.967H45.549V96.622H39.357V103.769H32.299V110.916H18.091V117.97H9.99899V109.878H17.139V106.298H0V105.298H17.139V102.82H31.344V96.625H9.99899V88.625H45.552V82.513H31.352V46.1H45.552V39.042H53.552V46.094H67.752V49.298H73.656V50.298H67.752V82.507H53.552V88.616H73.869V81.558H80.931V75.363H73.873V67.363H81.873V74.42H89.02V82.513H81.873V88.629H89.02V91.298H97.656V92.298H89.02V96.629H67.757V102.823H81.873V109.881H89.019V114.298H121.39V102.823ZM39.348 74.42V54.11H59.665V74.42H39.348Z" fill="black"/>
<path d="M135.677 109.881H163.997V96.629H142.735V88.629H163.998V60.305H171.998V74.42H178.193V60.305H186.193V74.42H200.404V78H207.588V79H200.404V82.512H185.26V75.366H179.148V82.513H172.001V88.625H193.264V96.625H172.001V109.881H185.254V102.823H193.254V109.881H200.407V117.973H135.677V109.881Z" fill="black"/>
<path d="M18.091 75.367H25.231V67.367H17.146V70.298H6.65601V71.298H17.146V74.425H9.99899V82.513H18.091V75.367Z" fill="black"/>
<path d="M80.927 53.158V46.1L89.016 46.104V54.104H81.869V61.25H73.869V53.158H80.927Z" fill="black"/>
<path d="M25.232 61.25H17.146V54.1H9.99899V46.1H18.091V53.158H25.232V61.25Z" fill="black"/>
<path fill-rule="evenodd" clip-rule="evenodd" d="M9.99896 135.644V153.289H13.528V146.231H17.057V149.76H20.586V153.289H24.115V149.76H20.586V142.702H24.115V139.173H20.586V135.644H9.99896ZM20.586 139.173H13.528V142.702H20.586V139.173Z" fill="#231815"/>
<path fill-rule="evenodd" clip-rule="evenodd" d="M45.968 139.173V153.289H49.498V146.231H56.555V153.289H60.085V139.173H56.556V135.644H49.498V139.173H45.968ZM49.498 139.173V142.702H56.556V139.173H49.498Z" fill="#231815"/>
<path d="M85.561 146.231V153.289H82.032V135.644H85.561V142.702H89.09V146.231H85.561Z" fill="#231815"/>
<path d="M92.619 149.76H89.09V146.231H92.619V149.76Z" fill="#231815"/>
<path d="M92.619 149.76H96.148V153.289H92.619V149.76Z" fill="#231815"/>
<path d="M92.619 139.173V142.702H89.09V139.173H92.619Z" fill="#231815"/>
<path d="M92.619 139.173V135.644H96.148V139.173H92.619Z" fill="#231815"/>
<path d="M121.473 135.644H117.943V149.76H121.473V153.289H128.53L128.531 149.76H132.059V135.644H128.53V149.76H121.473V135.644Z" fill="#231815"/>
<path d="M164.442 142.702H160.913V139.173H153.855V135.644H164.442V142.702Z" fill="#231815"/>
<path d="M157.384 146.231H160.913V142.702H157.384V146.231Z" fill="#231815"/>
<path d="M157.384 146.231H153.855V153.289H164.442V149.76H157.384V146.231Z" fill="#231815"/>
<path fill-rule="evenodd" clip-rule="evenodd" d="M186.294 139.173V153.289H189.823V146.231H196.881V153.289H200.41V139.173H196.881V135.644H189.823V139.173H186.294ZM189.823 139.173V142.702H196.881V139.173H189.823Z" fill="#231815"/>
<path d="M375.534 17.476V13.464H362.444V9.11205H373.086V5.09805H362.444V0.0320454H358.126V5.09805H347.79V9.11005H358.126V13.462H345.24V17.474H356.256C352.987 21.4933 348.817 24.6856 344.084 26.792C345.209 27.8455 346.212 29.0215 347.076 30.298C351.313 28.0022 355.065 24.908 358.126 21.186V31.79H362.444V20.978C365.453 24.8141 369.213 27.9957 373.494 30.328C374.327 29.0497 375.308 27.8748 376.418 26.828C371.712 24.696 367.568 21.4943 364.318 17.478L375.534 17.476Z" fill="black"/>
<path fill-rule="evenodd" clip-rule="evenodd" d="M412.56 18.632V14.756H405.96C407.261 12.818 408.453 10.8089 409.53 8.73805L405.62 7.58205H411.264V3.70605H399.502V-0.00195312H395.22V3.70405H383.762V7.58005H389.542L386.042 8.90605C387.152 10.7316 388.009 12.6988 388.592 14.754H382.164V18.63H392.84C389.658 22.3076 385.682 25.2141 381.212 27.13C382.292 28.149 383.251 29.29 384.068 30.53C388.379 28.2719 392.176 25.1464 395.22 21.35V31.722H399.502V21.284C402.504 25.1443 406.295 28.3196 410.622 30.598C411.427 29.3587 412.374 28.2176 413.444 27.198C408.994 25.2669 405.05 22.3348 401.918 18.63L412.56 18.632ZM395.22 7.58205V14.756H389.338L392.568 13.498C391.878 11.4037 390.906 9.41334 389.678 7.58205H395.22ZM405.25 7.58205C404.473 9.72668 403.506 11.7976 402.36 13.77L405.216 14.756H399.502V7.58205H405.25Z" fill="black"/>
<path d="M438.602 23.898C438.589 23.3336 438.573 22.6396 438.554 21.8945L438.554 21.8925C438.523 20.6185 438.489 19.1955 438.466 18.016C440.54 17.064 442.444 16.316 443.94 15.738C445.248 15.1826 446.587 14.7058 447.952 14.31L446.252 10.4C445.946 10.5446 445.642 10.6891 445.338 10.8336C444.427 11.2671 443.515 11.7006 442.546 12.134C442.111 12.3251 441.672 12.5128 441.222 12.7055C440.231 13.1301 439.183 13.5788 437.99 14.14C437.594 13.3017 436.953 12.6031 436.152 12.1365C435.35 11.6698 434.427 11.457 433.502 11.526C432.202 11.5158 430.91 11.7463 429.694 12.206C430.447 11.1369 431.096 9.9984 431.632 8.80605C435.305 8.69553 438.97 8.40049 442.614 7.92205L442.648 3.97805C439.498 4.5019 436.319 4.83119 433.128 4.96405C433.527 3.63326 433.764 2.49781 433.933 1.6851L433.944 1.63205L429.524 1.25805C429.432 2.55889 429.204 3.84653 428.844 5.10005H427.214C425.237 5.1108 423.262 4.98584 421.302 4.72605V8.67005C423.138 8.84005 425.62 8.90805 426.98 8.90805H427.388C425.497 12.4138 422.986 15.5473 419.976 18.156L423.576 20.842C424.548 19.5491 425.591 18.3118 426.702 17.136C428.128 15.764 429.996 14.9444 431.972 14.824C432.43 14.7955 432.887 14.8871 433.299 15.0899C433.71 15.2927 434.062 15.5995 434.318 15.98C430.478 17.952 426.402 20.672 426.402 24.956C426.402 29.308 430.38 30.566 435.65 30.566C438.831 30.5473 442.008 30.3658 445.17 30.022L445.302 25.636C442.155 26.2616 438.956 26.5917 435.748 26.622C432.448 26.622 430.848 26.112 430.848 24.242C430.848 22.576 432.208 21.25 434.69 19.89L434.685 20.0984C434.653 21.4989 434.619 22.9627 434.554 23.902L438.602 23.898Z" fill="black"/>
<path fill-rule="evenodd" clip-rule="evenodd" d="M470.092 9.31605V7.54805C470.806 8.29605 471.418 8.97605 471.892 9.52005L474.476 6.52805C472.253 4.32473 469.879 2.27974 467.37 0.408047H463.77C461.684 3.86051 458.745 6.71865 455.236 8.70805C456.192 9.52153 457.007 10.4864 457.65 11.564C457.837 11.445 458.024 11.3175 458.211 11.19C458.398 11.0625 458.585 10.935 458.772 10.816V15.44C458.772 19.282 458.398 24.722 455.406 28.632C456.399 29.3075 457.292 30.1203 458.058 31.046C459.214 29.557 460.1 27.877 460.676 26.082V31.688H464.076V30.634H469.822V31.586H473.322V22.44H461.592C461.684 22.035 461.75 21.6014 461.813 21.1916L461.83 21.08H472.812V10.506H459.212C460.269 9.73967 461.28 8.91086 462.238 8.02405V9.31605H470.092ZM463.73 6.59805C464.614 5.68005 465.396 4.76205 466.11 3.87805C467.096 4.66005 468.15 5.64605 469.136 6.59805H463.73ZM469.17 13.33V14.554H462.202V13.328L469.17 13.33ZM462.102 18.258C462.136 17.816 462.17 17.374 462.17 16.966H469.17V18.258H462.102ZM469.82 25.33V27.744H464.074V25.33H469.82Z" fill="black"/>
<path d="M478.626 4.11605H474.818V23.256H478.626V4.11605Z" fill="black"/>
<path d="M482.226 0.682047V26.898C482.226 27.476 481.988 27.68 481.376 27.68C480.73 27.68 478.758 27.68 476.718 27.612C477.338 28.9195 477.784 30.3026 478.044 31.726C480.968 31.726 483.076 31.59 484.368 30.91C485.728 30.298 486.168 29.176 486.168 26.932V0.680046L482.226 0.682047Z" fill="black"/>
<path fill-rule="evenodd" clip-rule="evenodd" d="M515.648 2.48205C514.797 2.66443 513.933 2.77813 513.064 2.82205C511.164 2.99205 503.952 3.16205 502.184 3.16205C501.232 3.16205 500.076 3.09405 499.124 2.99205L499.26 7.37805C500.171 7.23024 501.091 7.1394 502.014 7.10605C503.782 6.97005 508.406 6.76605 510.14 6.73205C509.068 7.67235 507.238 9.17523 505.57 10.5442C504.644 11.3037 503.769 12.022 503.102 12.58C502.153 13.3524 500.746 14.5285 499.276 15.7581L499.274 15.7597C497.638 17.1277 495.923 18.5618 494.67 19.58L497.73 22.742C501.33 18.662 504.7 15.908 509.868 15.908C513.778 15.908 516.838 17.948 516.838 20.974C516.872 21.9236 516.63 22.8627 516.142 23.6774C515.653 24.4922 514.938 25.1476 514.084 25.564C513.574 22.364 511.058 19.818 506.91 19.818C503.34 19.818 500.858 22.334 500.858 25.054C500.858 28.42 504.394 30.562 509.086 30.562C517.212 30.562 521.258 26.346 521.258 21.042C521.258 16.142 516.906 12.576 511.194 12.576C510.128 12.5511 509.063 12.6771 508.032 12.95C508.616 12.4793 509.309 11.9095 510.045 11.3048C511.965 9.72595 514.175 7.90969 515.478 7.00005C516.226 6.49005 517.008 5.98005 517.824 5.47005L515.648 2.48205ZM508.236 26.758C506.264 26.758 504.836 25.908 504.836 24.65C504.836 23.8 505.652 23.05 506.91 23.05C508.746 23.05 510.004 24.478 510.21 26.65C509.555 26.7227 508.895 26.7587 508.236 26.758Z" fill="black"/>
<path fill-rule="evenodd" clip-rule="evenodd" d="M547.132 30.196C555.632 28.898 559.984 23.868 559.984 16.798C559.984 9.45405 554.714 3.64005 546.384 3.64005C537.646 3.64005 530.884 10.304 530.884 18.056C530.884 23.734 534.046 27.848 537.752 27.848C541.424 27.848 544.352 23.7 546.352 16.9C547.215 13.8973 547.885 10.8424 548.358 7.75405C552.88 8.53605 555.396 12.004 555.396 16.662C555.396 21.562 552.064 24.652 547.746 25.672C546.862 25.872 545.91 26.046 544.618 26.216L547.132 30.196ZM537.884 22.682C536.626 22.682 535.266 21.016 535.266 17.616C535.401 15.2722 536.313 13.0402 537.859 11.2729C539.404 9.50568 541.495 8.30406 543.8 7.85805C543.411 10.6204 542.81 13.3486 542 16.018C540.638 20.57 539.278 22.678 537.884 22.678V22.682Z" fill="black"/>
<path d="M570.694 2.24805C570.664 3.35356 570.562 4.45593 570.388 5.54805C569.593 10.19 569.127 14.8823 568.994 19.59C568.955 23.2125 569.401 26.8239 570.32 30.328L574.128 30.056C574.094 29.58 574.094 29.002 574.094 28.662C574.089 28.1358 574.146 27.6108 574.264 27.098C574.928 24.3832 575.734 21.7049 576.678 19.074L574.602 17.408C574.496 17.6417 574.388 17.8753 574.28 18.1095C573.87 19.0002 573.455 19.8998 573.102 20.842C573.006 20.1208 572.96 19.3937 572.966 18.666C573.178 14.2919 573.713 9.93946 574.566 5.64405C574.783 4.63255 575.055 3.63371 575.382 2.65205L570.694 2.24805Z" fill="black"/>
<path fill-rule="evenodd" clip-rule="evenodd" d="M598.336 24.518C596.457 22.6805 594.256 21.2051 591.842 20.166L591.815 19.7155C591.684 17.5355 591.532 14.9893 591.468 11.938C593.304 11.802 595.068 11.598 596.704 11.36V7.17805C595.104 7.51805 593.338 7.75605 591.504 7.96005C591.504 6.67131 591.554 5.56415 591.589 4.80474C591.594 4.68025 591.6 4.56511 591.604 4.46005C591.634 3.73179 591.7 3.00552 591.804 2.28405H586.976C587.086 3.0162 587.152 3.75412 587.176 4.49405C587.196 4.91177 587.204 5.5506 587.214 6.34245V6.34366C587.222 6.90502 587.23 7.54322 587.244 8.23405C586.462 8.26805 585.644 8.26805 584.864 8.26805C582.899 8.26961 580.936 8.16747 578.982 7.96205V11.974C580.988 12.11 582.892 12.174 584.864 12.174C585.646 12.174 586.464 12.174 587.278 12.14C587.312 14.52 587.414 16.968 587.516 19.04C586.784 18.9408 586.045 18.8953 585.306 18.904C580.716 18.904 577.826 21.25 577.826 24.684C577.826 28.22 580.75 30.192 585.374 30.192C589.93 30.192 591.766 27.88 591.974 24.684C593.419 25.6995 594.783 26.8248 596.054 28.05L598.336 24.518ZM587.694 23.158C587.694 25.13 586.98 26.218 584.906 26.218C583.138 26.218 581.778 25.606 581.778 24.246C581.778 22.988 583.07 22.206 584.978 22.206C585.897 22.2111 586.812 22.3369 587.698 22.58L587.694 23.158Z" fill="black"/>
<path d="M615.03 28.018C612.768 25.3363 610.289 22.8458 607.618 20.572L604.082 23.632C606.721 25.932 609.165 28.4451 611.392 31.146L615.03 28.018Z" fill="black"/>
<path fill-rule="evenodd" clip-rule="evenodd" d="M372.954 82.956C370.016 80.2911 366.519 78.3163 362.72 77.176C362.55 74.694 362.414 72.042 362.346 70.002C365.066 69.934 369.078 69.802 371.9 69.526L371.73 65.514C368.942 65.82 364.998 65.956 362.346 66.024V63.576C362.414 62.25 362.516 60.618 362.652 59.632H357.582C357.817 60.9334 357.931 62.2537 357.922 63.576C357.956 65.004 357.99 67.01 357.99 69.05C357.99 70.4601 358.076 72.5839 358.163 74.7142C358.185 75.2549 358.207 75.7961 358.228 76.326C357.562 76.258 356.892 76.2246 356.222 76.226C350.034 76.226 347.042 79.014 347.042 82.516C347.042 87.106 350.986 88.67 355.78 88.67C361.424 88.67 362.954 85.814 362.954 82.856C362.954 82.5161 362.954 82.142 362.92 81.7C365.693 83.0043 368.214 84.7884 370.366 86.97L372.954 82.956ZM358.402 81.392C358.402 83.602 357.62 84.592 355.444 84.592C353.098 84.592 351.398 83.98 351.398 82.314C351.398 80.886 352.962 80.002 355.58 80.002C356.514 80.0109 357.446 80.0904 358.368 80.2401C358.402 80.6781 358.402 81.086 358.402 81.392Z" fill="black"/>
<path d="M387.402 59.398C387.368 60.35 387.302 61.71 387.13 62.934C386.575 66.5017 386.257 70.1023 386.178 73.7121C386.193 75.5889 386.329 77.4628 386.586 79.322L390.768 79.05C390.606 77.8674 390.549 76.6727 390.598 75.48C390.768 71.06 394.236 65.08 398.214 65.08C401.002 65.08 402.736 67.97 402.736 73.172C402.736 81.332 397.5 83.7801 390.02 84.9361L392.57 88.846C401.478 87.2141 407.326 82.6581 407.326 73.138C407.326 65.726 403.688 61.138 398.996 61.138C395.188 61.138 392.264 63.994 390.666 66.578C390.969 64.2278 391.423 61.8996 392.026 59.608L387.402 59.398Z" fill="black"/>
<path fill-rule="evenodd" clip-rule="evenodd" d="M434.592 62.386C435.136 61.162 435.68 59.836 436.192 58.476L431.292 57.932C431.074 59.4335 430.768 60.9208 430.374 62.386H421.674V89.722H425.788V88.022H441.938V89.688H446.256V62.388L434.592 62.386ZM425.786 84.282V80.746H441.936V84.282H425.786ZM441.936 73.504V77.004H425.786V73.504H441.936ZM441.936 66.262V69.762H425.786V66.262H441.936Z" fill="black"/>
<path fill-rule="evenodd" clip-rule="evenodd" d="M472.74 64.46V58.034H468.558V64.46H457.302V89.76H461.348V87.96H480.184V89.728H484.434V64.46H472.74ZM472.74 83.942V78.162H480.186V83.942H472.74ZM461.35 78.162H468.558V83.942H461.35V78.162ZM468.558 68.54V74.218H461.35V68.54H468.558ZM480.186 68.54V74.218H472.74V68.54H480.186Z" fill="black"/>
<path d="M522.958 68.234C520.314 66.5012 517.539 64.9779 514.658 63.678L512.482 67.01C515.34 68.3203 518.052 69.9271 520.574 71.804L522.958 68.234Z" fill="black"/>
<path d="M510.276 63.066C508.793 63.5155 507.283 63.8676 505.754 64.12C506.112 62.7652 506.432 61.467 506.684 60.443C506.767 60.1065 506.843 59.7996 506.91 59.53L502.252 59.054C502.135 60.9613 501.827 62.852 501.334 64.698C500.314 64.766 499.294 64.798 498.308 64.798C496.809 64.7974 495.311 64.7179 493.82 64.56L494.126 68.504C495.588 68.572 496.948 68.604 498.342 68.604C498.92 68.604 499.498 68.604 500.076 68.57C498.33 72.8263 496.02 76.8288 493.208 80.47L497.322 82.544C500.34 78.0719 502.763 73.2259 504.53 68.1281C506.501 67.8609 508.454 67.4749 510.378 66.972L510.276 63.066Z" fill="black"/>
<path fill-rule="evenodd" clip-rule="evenodd" d="M510.548 69.998C510.581 70.6809 510.623 71.4669 510.667 72.3047L510.667 72.3073C510.755 73.9717 510.854 75.8405 510.922 77.512C510.208 77.444 509.422 77.376 508.644 77.376C503.952 77.376 501.198 79.926 501.198 83.224C501.198 86.93 504.498 88.8 508.678 88.8C513.472 88.8 515.172 86.352 515.172 83.224V82.918C516.802 83.9583 518.328 85.1539 519.728 86.488L521.972 82.888C519.934 81.0327 517.571 79.5689 515.002 78.57C514.902 76.904 514.832 75.27 514.802 74.32C514.796 74.0605 514.789 73.8042 514.782 73.5505C514.75 72.3379 514.719 71.183 514.802 70.002L510.548 69.998ZM511.092 81.798C511.092 83.5981 510.344 84.926 508.066 84.926C506.23 84.926 505.176 84.076 505.176 82.818C505.176 81.628 506.434 80.812 508.376 80.812C509.293 80.8204 510.205 80.9345 511.096 81.152L511.092 81.798Z" fill="black"/>
<path d="M555.02 63.504C554.057 63.7751 553.062 63.9124 552.062 63.912H545.228L545.328 63.742C545.736 62.994 546.586 61.464 547.402 60.274L542.438 58.642C542.072 59.8886 541.558 61.087 540.908 62.212C538.377 66.7168 534.723 70.4898 530.302 73.164L534.11 75.986C537.372 73.7 540.262 70.9247 542.678 67.758H552.232C551.32 71.1674 549.672 74.3357 547.404 77.04C544.446 80.406 540.672 83.3641 533.704 85.44L537.716 89.04C544.108 86.49 548.222 83.396 551.452 79.452C554.096 76.0573 556.099 72.21 557.366 68.098C557.658 67.247 558.034 66.427 558.488 65.65L555.02 63.504Z" fill="black"/>
<path d="M571.612 60.716C571.706 61.5742 571.751 62.4368 571.748 63.3V74.762C571.748 75.4683 571.683 76.3213 571.631 76.9936C571.609 77.2923 571.588 77.5553 571.578 77.754H576.61C576.542 76.972 576.51 75.646 576.51 74.7961V63.304C576.51 62.216 576.544 61.468 576.61 60.72L571.612 60.716Z" fill="black"/>
<path d="M587.252 60.41C587.399 61.5372 587.466 62.6734 587.452 63.81V70.2701C587.452 75.5701 587.01 78.124 584.698 80.67C582.414 82.9014 579.512 84.3941 576.368 84.954L579.938 88.694C583.056 87.7568 585.894 86.0632 588.2 83.764C590.716 80.976 592.144 77.848 592.144 70.538V63.814C592.144 62.454 592.212 61.366 592.28 60.414L587.252 60.41Z" fill="black"/>
<path d="M621.32 81.456V67.588H628.494C629.48 67.588 630.67 67.656 631.694 67.724V63.066C630.708 63.166 629.518 63.266 628.494 63.266H610.002C608.922 63.2693 607.843 63.2025 606.772 63.066V67.724C607.622 67.656 609.084 67.588 610.002 67.588H616.564V81.46H607.928C606.811 81.4709 605.696 81.3799 604.596 81.188V86.118C605.702 85.9962 606.815 85.9394 607.928 85.948H630.334C631.39 85.9413 632.446 85.9981 633.496 86.118V81.188C632.451 81.3626 631.394 81.4536 630.334 81.46L621.32 81.456Z" fill="black"/>
<path d="M660.182 69.9341C663.432 67.8186 666.452 65.3685 669.192 62.624L665.554 59.324C663.038 62.3551 660.04 64.9511 656.68 67.008C651.885 69.8733 646.662 71.951 641.21 73.162L643.658 77.31C647.695 76.1421 651.613 74.5938 655.358 72.6861V83.84C655.366 85.3281 655.286 86.8153 655.12 88.294H660.492C660.248 86.8225 660.146 85.3311 660.186 83.84L660.182 69.9341Z" fill="black"/>
<path d="M701.9 62.964C700.936 63.2249 699.941 63.3507 698.942 63.338H691.972L692.006 63.304L692.083 63.17C692.517 62.4078 693.346 60.9559 694.114 59.836L689.184 58.306C688.83 59.5572 688.316 60.7572 687.654 61.876C685.059 66.5014 681.326 70.3869 676.808 73.164L680.48 75.986C683.915 73.5524 686.944 70.592 689.456 67.2141H699.214C698.439 69.8049 697.244 72.2513 695.678 74.456C693.4 73.096 691.088 71.804 689.286 70.886L686.396 74.116C688.13 75.102 690.442 76.496 692.754 77.9921C689.263 81.5934 684.891 84.2189 680.072 85.608L684.016 89.042C688.807 87.2484 693.106 84.3475 696.562 80.576C697.656 81.3269 698.711 82.1326 699.724 82.9901L702.818 79.012C701.968 78.4 700.812 77.618 699.554 76.836C701.527 73.954 703.105 70.8208 704.246 67.5201C704.552 66.6856 704.928 65.8782 705.368 65.106L701.9 62.964Z" fill="black"/>
<path d="M714.99 76.394C716.248 76.294 718.526 76.224 720.464 76.224H738.722C739.737 76.224 740.906 76.2927 741.79 76.3446C742.15 76.3658 742.464 76.3842 742.7 76.394V71.056L742.444 71.076C741.538 71.1469 740.144 71.256 738.722 71.256H720.464C718.696 71.256 716.214 71.156 714.99 71.056V76.394Z" fill="black"/>
<path fill-rule="evenodd" clip-rule="evenodd" d="M763.134 67.554C763.598 68.3889 763.953 69.2803 764.188 70.206H759.702V73.062H768.134V74.592H761.028V77.3801H768.134V78.98H759.668V81.898H768.134V84.176H772.146V81.898H780.986V78.978H772.146V77.3781H779.626V74.592H772.146V73.062H780.918V70.206H775.852C776.185 69.7068 776.534 69.1234 776.912 68.4928C777.074 68.2219 777.242 67.9415 777.416 67.6561L776.566 67.456H781.258V64.528H772.146V62.798H779.184V60.006H772.146V57.998H768.132V60.004H761.432V62.798H768.132V64.528H759.19V67.452H763.61L763.134 67.554ZM772.96 70.206H767.044L767.962 70.006C767.73 69.1217 767.399 68.2663 766.976 67.456H773.202C772.896 68.306 772.522 69.256 772.182 70.006L772.96 70.206Z" fill="black"/>
<path d="M758.884 64.254C757.345 62.2298 755.551 60.4128 753.546 58.848L750.452 61.16C752.415 62.7863 754.132 64.6872 755.552 66.804L758.884 64.254Z" fill="black"/>
<path d="M757.966 71.19H750.316V74.898H754.124V82.31C752.787 83.4423 751.379 84.4871 749.908 85.438L751.808 89.45C753.542 87.988 754.936 86.696 756.296 85.37C758.336 87.988 761.056 88.97 765.102 89.144C769.25 89.314 776.458 89.244 780.674 89.044C780.944 87.6863 781.366 86.3633 781.932 85.1C777.24 85.474 769.216 85.576 765.132 85.4061C761.664 85.2701 759.284 84.318 757.958 82.04L757.966 71.19Z" fill="black"/>
<path d="M814.644 65.682C813.839 64.0792 812.942 62.5239 811.958 61.024L809.272 62.148C810.267 63.6584 811.153 65.2377 811.924 66.874L814.644 65.682Z" fill="black"/>
<path d="M803.084 74.282C805.24 74.032 807.408 73.9071 809.578 73.9081C811.512 73.9394 813.442 74.087 815.358 74.35L815.458 70.2701C813.492 70.0792 811.517 69.9884 809.542 69.998C807.384 70.0014 805.228 70.1149 803.082 70.338L803.084 74.282Z" fill="black"/>
<path d="M805.736 63.504C803.9 63.946 801.996 64.32 800.092 64.592L800.364 63.334C800.422 63.0772 800.497 62.7323 800.579 62.3512C800.736 61.6225 800.922 60.7618 801.078 60.134L795.944 59.726C796.01 60.8724 795.964 62.0225 795.808 63.16C795.74 63.67 795.638 64.35 795.502 65.06C794.482 65.128 793.496 65.16 792.51 65.16C791.09 65.1733 789.67 65.0938 788.26 64.922L788.36 69.104C789.55 69.1721 790.808 69.2401 792.44 69.2401C793.089 69.2401 793.799 69.2091 794.542 69.1767L794.65 69.172C794.507 69.8508 794.326 70.5275 794.148 71.1942C794.076 71.4625 794.004 71.7295 793.936 71.994C792.678 76.72 790.128 83.758 788.122 87.1581L792.848 88.722C795.014 83.6719 796.798 78.4667 798.186 73.15C798.56 71.7561 798.9 70.26 799.206 68.832C801.401 68.5773 803.58 68.2028 805.734 67.71L805.736 63.504Z" fill="black"/>
<path d="M801.01 78.43C800.667 79.9027 800.473 81.4064 800.432 82.918C800.432 86.318 803.322 88.29 809 88.29C811.297 88.278 813.591 88.119 815.868 87.814L816.038 83.496C813.727 83.9161 811.386 84.1436 809.038 84.176C805.438 84.176 804.584 83.054 804.584 81.592C804.629 80.6357 804.789 79.6882 805.06 78.7701L801.01 78.43Z" fill="black"/>
<path d="M813.284 60.58C814.319 62.0724 815.239 63.6409 816.038 65.272L818.724 64.116C817.91 62.515 816.99 60.9702 815.97 59.492L813.284 60.58Z" fill="black"/>
<path fill-rule="evenodd" clip-rule="evenodd" d="M828.584 78.362C827.495 78.362 826.43 78.6851 825.524 79.2903C824.618 79.8955 823.912 80.7558 823.495 81.7622C823.078 82.7687 822.969 83.8762 823.182 84.9446C823.394 86.0131 823.919 86.9945 824.689 87.7648C825.46 88.5351 826.441 89.0597 827.509 89.2722C828.578 89.4847 829.685 89.3757 830.692 88.9588C831.698 88.5419 832.558 87.8359 833.164 86.9301C833.769 86.0243 834.092 84.9594 834.092 83.87C834.087 82.4111 833.505 81.0133 832.473 79.982C831.441 78.9507 830.043 78.3697 828.584 78.366V78.362ZM828.584 86.896C827.982 86.8927 827.395 86.7109 826.896 86.3737C826.398 86.0366 826.01 85.5592 825.783 85.0019C825.556 84.4445 825.499 83.8324 825.62 83.2428C825.741 82.6531 826.033 82.1126 826.461 81.6894C826.889 81.2662 827.433 80.9794 828.024 80.8653C828.615 80.7512 829.226 80.8148 829.781 81.0483C830.336 81.2817 830.809 81.6743 831.141 82.1766C831.472 82.6789 831.647 83.2682 831.644 83.87C831.643 84.2702 831.563 84.6663 831.409 85.0355C831.255 85.4046 831.029 85.7396 830.744 86.0211C830.46 86.3025 830.123 86.5249 829.752 86.6754C829.381 86.826 828.984 86.9016 828.584 86.898V86.896Z" fill="black"/>
<path d="M347.042 242.522L352.21 242.59C351.972 243.939 351.838 245.304 351.81 246.674C351.772 248.85 351.81 251.4 352.01 253.814C352.482 258.674 353.502 261.974 355.61 261.974C357.208 261.974 358.534 258.026 359.18 255.374L362.58 259.454C360.336 265.302 358.228 267.376 355.508 267.376C351.836 267.376 348.602 264.044 347.654 255C347.348 251.906 347.28 247.996 347.28 245.922C347.3 244.784 347.22 243.646 347.042 242.522Z" fill="black"/>
<path d="M364.756 244.732L369.04 243.304C372.236 247.214 374.82 255.34 375.194 260.508L370.74 262.208C370.23 256.798 368.428 248.88 364.756 244.732Z" fill="black"/>
<path d="M385.326 261.562C385.414 259.683 385.733 257.821 386.278 256.02L390.658 256.36C390.148 257.656 389.827 259.019 389.706 260.406C389.706 262.854 390.964 264.486 395.724 264.486C398.811 264.532 401.892 264.212 404.904 263.534L404.804 267.988C401.812 268.554 398.771 268.828 395.726 268.804C388.964 268.804 385.326 266.254 385.326 261.562Z" fill="black"/>
<path d="M406.338 243.372C405.726 242.109 405.022 240.893 404.23 239.734L406.916 238.62C407.9 240.12 408.797 241.675 409.602 243.278L408.446 243.788L409.058 247.052C407.324 247.528 405.352 248.004 403.346 248.412C404.604 251.13 406.202 254.326 407.664 257.012L405.284 259.528C403.482 259.154 400.15 258.644 397.634 258.338L398.008 254.87C398.109 254.879 398.215 254.888 398.326 254.898C398.512 254.915 398.71 254.933 398.915 254.951L398.918 254.952C399.973 255.047 401.207 255.158 401.986 255.21C401.641 254.46 401.217 253.592 400.769 252.674C400.201 251.511 399.594 250.269 399.062 249.09C394.335 249.534 389.577 249.534 384.85 249.09L384.714 244.772C388.882 245.346 393.101 245.46 397.294 245.112L396.58 243.512C396.114 242.392 395.557 241.311 394.914 240.282L399.708 239.364C400.264 241.108 400.911 242.822 401.646 244.498C403.228 244.203 404.794 243.827 406.338 243.372Z" fill="black"/>
<path d="M411.03 242.964C410.231 241.333 409.311 239.764 408.276 238.272L410.962 237.15C411.957 238.644 412.877 240.187 413.716 241.774L411.03 242.964Z" fill="black"/>
<path d="M421.91 240.108C423.957 241.486 425.79 243.159 427.35 245.072L424.392 247.69C422.919 245.671 421.141 243.893 419.122 242.42L421.91 240.108Z" fill="black"/>
<path d="M426.062 248.421L426.602 248.132L427.69 251.362C425.344 252.824 422.692 254.422 420.55 255.612L418.544 252.28C420.461 251.417 423.25 249.925 426.062 248.421Z" fill="black"/>
<path fill-rule="evenodd" clip-rule="evenodd" d="M449.552 257.246V260.746H439.76C442.962 263.073 446.572 264.781 450.402 265.782C449.394 266.822 448.494 267.961 447.716 269.182C443.55 267.76 439.711 265.515 436.428 262.582V269.688H432.348V262.48C429.138 265.548 425.33 267.921 421.162 269.45C420.378 268.224 419.466 267.084 418.442 266.05C422.278 264.984 425.87 263.182 429.016 260.742H419.326V257.242H432.348V254.964H427.792V241.364H431.804C432.106 240.257 432.344 239.133 432.518 237.998L437.006 238.476C436.77 239.121 436.519 239.752 436.282 240.353C436.143 240.702 436.009 241.041 435.884 241.366H441.046V244.766C442.833 243.221 444.473 241.513 445.946 239.666L449.414 241.74C447.65 243.663 445.74 245.448 443.702 247.078L441.048 245.31V249.526L442.548 247.826C445.279 249.14 447.885 250.699 450.334 252.484L447.852 255.51C445.726 253.801 443.45 252.287 441.052 250.988V254.968H436.428V257.246H449.552ZM437.108 249.598H431.532V251.91H437.108V249.598ZM431.532 246.708H437.108V244.464H431.532V246.708Z" fill="black"/>
<path d="M487.052 242.284V246.228H473.486V249.798H484.196V261.29C484.196 263.228 483.79 264.384 482.396 264.996C480.968 265.608 479.03 265.676 476.378 265.676C476.12 264.291 475.662 262.951 475.018 261.698C476.718 261.766 478.724 261.766 479.268 261.766C479.812 261.766 479.982 261.596 479.982 261.222V253.742H473.488V269.79H469.272V253.742H463.322V265.676H459.242V249.798H469.272V246.228H456.046V242.284H469.234V237.864H473.552V242.284H487.052Z" fill="black"/>
<path d="M496.44 258.57C499.111 260.844 501.59 263.334 503.852 266.016L500.212 269.144C497.986 266.443 495.541 263.93 492.902 261.63L496.44 258.57Z" fill="black"/>
<path d="M527.326 243.61L529.808 239.87C532.052 241.128 535.792 243.508 537.56 244.736L535.01 248.51C533.106 247.18 529.57 244.868 527.326 243.61Z" fill="black"/>
<path d="M526.034 268.498L523.484 264.01C527.53 263.377 531.446 262.09 535.078 260.198C540.552 257.216 545.12 252.813 548.302 247.452L550.922 252.076C547.383 257.107 542.758 261.279 537.39 264.282C533.832 266.237 530.006 267.658 526.034 268.498Z" fill="black"/>
<path d="M522.09 251.398L524.572 247.622C526.85 248.846 530.59 251.192 532.324 252.418L529.842 256.226C527.342 254.485 524.755 252.873 522.09 251.398Z" fill="black"/>
<path d="M561.356 244.358L564.556 240.958C567.664 243.113 570.596 245.512 573.324 248.132L569.856 251.702C567.222 249.032 564.38 246.577 561.356 244.358Z" fill="black"/>
<path d="M563.162 268.09L560.302 263.598C564.895 262.99 569.323 261.478 573.328 259.148C578.632 256.012 582.926 251.423 585.702 245.922L588.356 250.718C585.276 255.894 580.952 260.218 575.776 263.298C571.902 265.659 567.626 267.283 563.162 268.09Z" fill="black"/>
<path d="M351.802 145.723C351.064 148.504 349.515 151.001 347.352 152.898L344.302 150.873C346.318 149.383 347.806 147.291 348.552 144.898C349.252 142.748 349.277 138.023 349.277 134.998C349.298 134.233 349.222 133.469 349.052 132.723H352.727C352.616 133.468 352.557 134.22 352.552 134.973C352.552 137.923 352.477 143.198 351.802 145.723Z" fill="black"/>
<path d="M359.052 152.223C358.66 152.434 358.291 152.685 357.952 152.973L355.877 151.248C356.004 150.639 356.071 150.02 356.077 149.398V134.823C356.08 134.102 356.014 133.381 355.877 132.673H359.602C359.481 133.392 359.423 134.119 359.427 134.848V147.923C361.909 146.732 364.037 144.913 365.602 142.648L367.527 145.398C365.184 148.214 362.303 150.535 359.052 152.223Z" fill="black"/>
<path d="M376.877 144.023C375.452 144.023 373.777 144.073 372.852 144.148V140.223C373.752 140.298 375.577 140.373 376.877 140.373H390.302C391.327 140.373 392.332 140.294 392.998 140.241C393.08 140.235 393.156 140.228 393.227 140.223V144.148C393.053 144.141 392.823 144.127 392.558 144.112C391.908 144.074 391.048 144.023 390.302 144.023H376.877Z" fill="black"/>
<path d="M406.302 145.723C405.564 148.504 404.015 151.001 401.852 152.898L398.802 150.873C400.818 149.383 402.306 147.291 403.052 144.898C403.752 142.748 403.777 138.023 403.777 134.998C403.798 134.233 403.722 133.469 403.552 132.723H407.227C407.116 133.468 407.057 134.22 407.052 134.973C407.052 137.923 406.977 143.198 406.302 145.723Z" fill="black"/>
<path d="M413.552 152.223C413.16 152.434 412.791 152.685 412.452 152.973L410.377 151.248C410.504 150.639 410.571 150.02 410.577 149.398V134.823C410.58 134.102 410.514 133.381 410.377 132.673H414.102C413.981 133.392 413.923 134.119 413.927 134.848V147.923C416.409 146.732 418.537 144.913 420.102 142.648L422.027 145.398C419.684 148.214 416.803 150.535 413.552 152.223Z" fill="black"/>
<path d="M436.927 131.048C438.081 131.934 439.183 132.885 440.227 133.898L437.877 135.598C436.863 134.55 435.786 133.565 434.652 132.648L436.927 131.048Z" fill="black"/>
<path d="M429.702 136.698C429.265 135.943 428.781 135.216 428.252 134.523L431.452 133.298C431.485 133.365 431.525 133.444 431.568 133.532C431.82 134.039 432.218 134.84 432.452 135.223C432.827 135.948 433.227 136.748 433.602 137.573C436.602 136.248 439.602 135.073 442.127 135.073C445.977 135.073 448.277 137.398 448.277 140.273C448.277 143.748 445.902 145.923 442.102 145.923C440.806 145.897 439.522 145.661 438.302 145.223L438.377 142.123C439.447 142.614 440.601 142.894 441.777 142.948C443.677 142.948 445.002 141.948 445.002 140.173C445.002 138.898 443.927 137.873 442.052 137.873C440.127 137.873 437.427 138.898 434.777 140.123L435.477 141.648C436.627 144.348 438.527 149.648 439.377 152.423L435.952 153.298C435.093 149.797 433.982 146.363 432.627 143.023L431.977 141.498C431.231 141.866 430.521 142.229 429.869 142.562C428.971 143.021 428.186 143.423 427.577 143.698L426.127 140.523C426.965 140.328 427.785 140.061 428.577 139.723C429.302 139.448 430.051 139.123 430.801 138.798C430.426 138.048 430.077 137.348 429.702 136.698Z" fill="black"/>
<path d="M452.702 151.048C453.441 149.197 453.872 147.238 453.977 145.248L456.252 145.623C456.099 147.829 455.601 149.997 454.777 152.048C454.116 151.655 453.421 151.321 452.702 151.048Z" fill="black"/>
<path d="M458.598 139.646C458.204 140.216 457.825 140.764 457.427 141.273L459.502 141.148C459.287 140.558 459.037 139.982 458.752 139.423L460.702 138.623C461.605 140.344 462.277 142.177 462.702 144.073L460.627 144.973C460.544 144.493 460.435 144.017 460.302 143.548L459.027 143.648V153.973H456.527V143.848L453.227 144.098L452.927 141.523C453.185 141.512 453.452 141.497 453.731 141.481C454.1 141.46 454.489 141.437 454.902 141.423C455.227 140.973 455.577 140.473 455.902 139.973C455.071 138.662 454.098 137.447 453.002 136.348L454.427 134.423C454.627 134.598 454.827 134.798 455.027 134.998C455.737 133.596 456.338 132.142 456.827 130.648L459.352 131.523L459.257 131.704C458.381 133.385 457.396 135.272 456.552 136.623C456.836 136.951 457.103 137.293 457.352 137.648C458.177 136.248 458.927 134.798 459.502 133.573L461.852 134.648C460.927 136.173 459.852 137.848 458.752 139.423C458.7 139.498 458.649 139.572 458.598 139.646Z" fill="black"/>
<path d="M460.302 150.323C460.106 148.749 459.72 147.204 459.152 145.723L461.102 145.148C461.723 146.586 462.151 148.099 462.377 149.648L460.302 150.323Z" fill="black"/>
<path fill-rule="evenodd" clip-rule="evenodd" d="M473.077 145.773H476.502V148.198H473.077V151.173C473.077 152.448 472.852 153.148 471.952 153.548C470.785 153.932 469.552 154.077 468.327 153.973C468.176 153.11 467.915 152.27 467.552 151.473L466.252 152.398C465.58 151.186 464.719 150.089 463.702 149.148L465.227 148.198H462.152V145.773H470.252V144.548H462.952V136.248H467.877V135.248H462.252V132.973H467.877V130.723H470.627V132.973H472.802C472.213 132.584 471.594 132.241 470.952 131.948L472.377 130.598C473.393 130.994 474.351 131.524 475.227 132.173L474.452 132.973H476.152V135.248H470.627V136.248H475.752V144.548H473.077V145.773ZM469.827 151.423C470.152 151.423 470.252 151.348 470.252 151.098V148.198H466.227C467.086 148.974 467.842 149.856 468.477 150.823L467.627 151.423C468.552 151.448 469.502 151.448 469.827 151.423ZM467.877 141.323H465.602V142.573H467.877V141.323ZM467.877 138.223H465.602V139.473H467.877V138.223ZM472.977 139.473V138.223H470.627V139.473H472.977ZM470.627 141.323V142.573H472.977V141.323H470.627Z" fill="black"/>
<path d="M485.027 134.248C485.152 133.348 485.202 132.348 485.227 131.648L488.627 131.798C488.184 133.483 487.85 135.195 487.627 136.923C488.802 135.023 490.952 132.923 493.752 132.923C497.202 132.923 499.877 136.298 499.877 141.748C499.877 148.748 495.577 152.098 489.027 153.298L487.152 150.423C492.652 149.573 496.502 147.773 496.502 141.773C496.502 137.948 495.227 135.823 493.177 135.823C490.252 135.823 487.702 140.223 487.577 143.473C487.541 144.35 487.583 145.228 487.702 146.098L484.627 146.298C484.438 144.931 484.338 143.553 484.327 142.173C484.385 139.519 484.619 136.871 485.027 134.248Z" fill="black"/>
<path d="M518.027 137.548L518.002 134.348C521.542 134.723 525.112 134.723 528.652 134.348V137.548C525.116 137.823 521.563 137.823 518.027 137.548Z" fill="black"/>
<path d="M516.727 147.898C516.753 146.811 516.896 145.73 517.152 144.673L520.002 144.948C519.813 145.624 519.712 146.321 519.702 147.023C519.702 148.123 520.652 148.773 523.152 148.773C525.236 148.783 527.315 148.565 529.352 148.123L529.427 151.473C527.314 151.839 525.171 152.006 523.027 151.973C518.752 151.973 516.727 150.423 516.727 147.898Z" fill="black"/>
<path d="M510.477 134.848C510.614 134.046 510.697 133.236 510.727 132.423L514.202 132.723C513.962 133.445 513.762 134.179 513.602 134.923C512.976 137.914 512.575 140.947 512.402 143.998C512.399 144.533 512.433 145.068 512.502 145.598C512.731 145.027 512.98 144.477 513.224 143.941C513.353 143.656 513.481 143.376 513.602 143.098L515.152 144.298C514.453 146.29 513.861 148.318 513.377 150.373C513.296 150.752 513.246 151.136 513.227 151.523C513.24 151.667 513.246 151.845 513.253 152.032C513.259 152.203 513.265 152.381 513.277 152.548L510.427 152.748C509.753 150.101 509.426 147.379 509.452 144.648C509.558 141.361 509.901 138.086 510.477 134.848Z" fill="black"/>
<path d="M544.977 135.373H547.777L547.752 135.698C548.452 141.098 550.027 145.348 554.027 147.098C553.351 147.768 552.778 148.535 552.327 149.373C549.452 147.898 547.777 145.423 546.727 142.073C546.305 143.629 545.574 145.084 544.578 146.351C543.581 147.618 542.34 148.671 540.927 149.448C540.48 148.652 539.886 147.948 539.177 147.373C544.202 144.773 544.677 139.948 544.977 135.373Z" fill="black"/>
<path fill-rule="evenodd" clip-rule="evenodd" d="M535.952 153.998V131.748H557.227V153.998H554.127V152.923H538.927V153.998H535.952ZM538.927 134.598V150.073H554.127V134.598H538.927Z" fill="black"/>
<path d="M571.677 131.723C571.527 132.423 571.327 133.698 571.127 135.248L572.052 136.423C571.727 136.848 571.202 137.648 570.777 138.298C570.764 138.423 570.758 138.542 570.752 138.661C570.746 138.779 570.739 138.898 570.727 139.023C572.805 137.392 575.361 136.488 578.002 136.448C578.896 136.409 579.788 136.554 580.624 136.873C581.46 137.193 582.221 137.681 582.861 138.307C583.501 138.932 584.005 139.682 584.343 140.511C584.682 141.339 584.846 142.228 584.827 143.123C584.827 148.123 581.702 151.123 575.552 152.348L574.077 149.348C578.427 148.673 581.527 146.923 581.527 143.048C581.515 142.539 581.4 142.037 581.189 141.574C580.978 141.11 580.675 140.694 580.299 140.351C579.923 140.007 579.482 139.744 579.001 139.576C578.52 139.408 578.01 139.339 577.502 139.373C574.839 139.489 572.323 140.626 570.477 142.548L570.477 142.549C570.452 143.249 570.427 143.948 570.427 144.598C570.427 146.623 570.427 148.698 570.577 151.023C570.594 151.323 570.644 151.823 570.69 152.286C570.713 152.518 570.735 152.74 570.752 152.923H567.352C567.402 152.398 567.427 151.498 567.427 151.098C567.453 150.106 567.465 149.247 567.478 148.36C567.49 147.525 567.503 146.666 567.527 145.648C566.477 147.223 565.252 149.023 564.402 150.223L562.452 147.473C563.852 145.773 566.352 142.473 567.752 140.398L567.852 138.673C567.276 138.745 566.538 138.84 565.772 138.939C564.942 139.046 564.08 139.157 563.352 139.248L563.052 136.073C563.769 136.101 564.486 136.093 565.202 136.048C565.927 135.998 567.002 135.873 568.052 135.723C568.069 135.401 568.087 135.107 568.102 134.848C568.131 134.362 568.152 134.002 568.152 133.823C568.18 133.088 568.147 132.352 568.052 131.623L571.677 131.723Z" fill="black"/>
<path d="M607.952 148.648C609.192 148.482 610.325 147.858 611.127 146.898L611.552 150.373C610.312 151.59 608.639 152.264 606.902 152.248C605.052 152.248 603.802 150.873 603.802 148.498C603.802 147.087 604.041 145.422 604.269 143.834C604.478 142.384 604.677 140.997 604.677 139.923C604.677 138.698 604.052 138.098 603.027 138.098C601.177 138.098 598.477 140.373 596.477 142.598L596.474 142.677C596.45 143.349 596.427 143.997 596.427 144.598C596.427 146.623 596.427 148.698 596.577 151.023C596.594 151.323 596.644 151.823 596.69 152.286C596.713 152.518 596.735 152.74 596.752 152.923H593.352C593.402 152.398 593.427 151.498 593.427 151.098C593.453 150.106 593.465 149.247 593.478 148.36C593.49 147.525 593.503 146.666 593.527 145.648C593.171 146.169 592.802 146.717 592.437 147.26C591.697 148.359 590.971 149.437 590.402 150.223L588.452 147.473C589.852 145.773 592.352 142.473 593.752 140.398L593.852 138.673C593.276 138.745 592.538 138.84 591.772 138.939C590.942 139.046 590.08 139.157 589.352 139.248L589.052 136.073C589.769 136.101 590.486 136.093 591.202 136.048C591.927 135.998 593.002 135.873 594.052 135.723C594.069 135.401 594.087 135.107 594.102 134.848C594.131 134.362 594.152 134.002 594.152 133.823C594.18 133.088 594.147 132.352 594.052 131.623L597.677 131.723C597.527 132.423 597.327 133.698 597.127 135.248L598.052 136.423C597.727 136.848 597.202 137.648 596.777 138.298C596.773 138.474 596.756 138.649 596.727 138.823C598.677 137.123 601.527 135.148 603.927 135.148C606.577 135.148 607.827 136.723 607.827 138.798C607.827 140.086 607.621 141.636 607.415 143.186C607.208 144.736 607.002 146.286 607.002 147.573C607.002 148.223 607.327 148.648 607.952 148.648Z" fill="black"/>
<path d="M632.052 134.798C634.17 135.754 636.209 136.874 638.152 138.148L636.402 140.773C634.548 139.393 632.553 138.211 630.452 137.248L632.052 134.798Z" fill="black"/>
<path d="M625.502 135.123C626.626 134.937 627.737 134.679 628.827 134.348L628.902 137.223C627.487 137.593 626.051 137.877 624.602 138.073C623.303 141.821 621.521 145.385 619.302 148.673L616.277 147.148C618.345 144.471 620.043 141.528 621.327 138.398C620.902 138.423 620.477 138.423 620.052 138.423C619.027 138.423 618.027 138.398 616.952 138.348L616.727 135.448C617.823 135.564 618.925 135.623 620.027 135.623C620.752 135.623 621.502 135.598 622.252 135.548C622.615 134.191 622.841 132.8 622.927 131.398L626.352 131.748C626.3 131.954 626.242 132.191 626.178 132.45C625.994 133.198 625.762 134.14 625.502 135.123Z" fill="black"/>
<path fill-rule="evenodd" clip-rule="evenodd" d="M629.106 140.971C629.077 140.42 629.05 139.903 629.027 139.448H632.152C632.09 140.312 632.113 141.159 632.137 142.045C632.142 142.236 632.148 142.428 632.152 142.623C632.177 143.323 632.227 144.523 632.302 145.748C634.191 146.482 635.928 147.559 637.427 148.923L635.777 151.573C634.748 150.592 633.626 149.713 632.427 148.948V149.173C632.427 151.473 631.177 153.273 627.652 153.273C624.577 153.273 622.152 151.898 622.152 149.173C622.152 146.748 624.177 144.873 627.627 144.873C628.202 144.873 628.777 144.923 629.302 144.973C629.25 143.684 629.173 142.237 629.106 140.971ZM627.202 150.423C628.877 150.423 629.427 149.448 629.427 148.123V147.648C628.772 147.488 628.101 147.404 627.427 147.398C626.002 147.398 625.077 147.998 625.077 148.873C625.077 149.798 625.852 150.423 627.202 150.423Z" fill="black"/>
<path d="M644.552 133.948L648.352 133.998C648.175 134.989 648.075 135.992 648.052 136.998C648.027 138.598 648.052 140.473 648.202 142.248C648.552 145.823 649.302 148.248 650.852 148.248C652.027 148.248 653.002 145.348 653.477 143.398L655.977 146.398C654.327 150.698 652.777 152.223 650.777 152.223C648.077 152.223 645.702 149.773 645.002 143.123C644.777 140.848 644.727 137.973 644.727 136.448C644.742 135.611 644.683 134.775 644.552 133.948Z" fill="black"/>
<path d="M657.577 135.573L660.727 134.523C663.077 137.398 664.977 143.373 665.252 147.173L661.977 148.423C661.602 144.448 660.277 138.623 657.577 135.573Z" fill="black"/>
<path d="M672.652 145.748C674.616 147.42 676.439 149.251 678.102 151.223L675.427 153.523C673.79 151.537 671.992 149.689 670.052 147.998L672.652 145.748Z" fill="black"/>
<path fill-rule="evenodd" clip-rule="evenodd" d="M357.602 173.973C357.227 174.973 356.827 175.948 356.427 176.848H365.002V196.923H361.827V195.698H349.952V196.948H346.927V176.848H353.327C353.616 175.771 353.842 174.677 354.002 173.573L357.602 173.973ZM349.952 190.348V192.948H361.827V190.348H349.952ZM361.827 187.598V185.023H349.952V187.598H361.827ZM361.827 182.273V179.698H349.952V182.273H361.827Z" fill="black"/>
<path d="M388.102 179.723C385.602 179.398 380.077 178.248 378.152 177.748L378.952 174.748C382.207 175.602 385.514 176.245 388.852 176.673L388.102 179.723Z" fill="black"/>
<path d="M375.752 179.273L379.102 179.723C378.777 181.098 378.352 184.073 378.177 185.498C380.286 183.952 382.837 183.127 385.452 183.148C389.802 183.148 392.327 185.823 392.327 188.823C392.327 193.348 388.752 196.823 378.452 195.923L377.502 192.673C384.927 193.723 388.852 191.898 388.852 188.748C388.852 187.148 387.327 185.973 385.152 185.973C383.871 185.922 382.594 186.156 381.414 186.657C380.234 187.159 379.18 187.916 378.327 188.873C377.943 189.303 377.63 189.793 377.402 190.323L374.527 189.598C375.134 186.183 375.543 182.735 375.752 179.273Z" fill="black"/>
<path d="M409.027 180.548L409.002 177.348C412.542 177.723 416.112 177.723 419.652 177.348V180.548C416.116 180.823 412.563 180.823 409.027 180.548Z" fill="black"/>
<path d="M407.727 190.898C407.753 189.811 407.896 188.73 408.152 187.673L411.002 187.948C410.813 188.624 410.712 189.321 410.702 190.023C410.702 191.123 411.652 191.773 414.152 191.773C416.236 191.783 418.315 191.565 420.352 191.123L420.427 194.473C418.314 194.839 416.171 195.006 414.027 194.973C409.752 194.973 407.727 193.423 407.727 190.898Z" fill="black"/>
<path d="M401.477 177.848C401.614 177.046 401.697 176.236 401.727 175.423L405.202 175.723C404.962 176.445 404.762 177.179 404.602 177.923C403.976 180.914 403.575 183.947 403.402 186.998C403.399 187.533 403.433 188.068 403.502 188.598C403.731 188.027 403.98 187.477 404.224 186.941C404.353 186.656 404.481 186.376 404.602 186.098L406.152 187.298C405.453 189.29 404.861 191.318 404.377 193.373C404.296 193.752 404.246 194.136 404.227 194.523C404.24 194.667 404.246 194.845 404.253 195.032C404.259 195.203 404.265 195.381 404.277 195.548L401.427 195.748C400.753 193.101 400.426 190.379 400.452 187.648C400.558 184.361 400.901 181.086 401.477 177.848Z" fill="black"/>
<path fill-rule="evenodd" clip-rule="evenodd" d="M438.977 173.648V178.373H447.577V196.948H444.452V195.648H430.602V196.973H427.627V178.373H435.902V173.648H438.977ZM438.977 188.448V192.698H444.452V188.448H438.977ZM435.902 188.448H430.602V192.698H435.902V188.448ZM435.902 185.548V181.373H430.602V185.548H435.902ZM444.452 185.548V181.373H438.977V185.548H444.452Z" fill="black"/>
<path fill-rule="evenodd" clip-rule="evenodd" d="M468.127 175.698C468.766 175.666 469.401 175.582 470.027 175.448L471.627 177.648C471.027 178.023 470.452 178.398 469.902 178.773C468.944 179.442 467.319 180.777 465.907 181.938C465.366 182.383 464.856 182.802 464.427 183.148C465.185 182.947 465.968 182.855 466.752 182.873C470.952 182.873 474.152 185.498 474.152 189.098C474.152 192.998 471.177 196.098 465.202 196.098C461.752 196.098 459.152 194.523 459.152 192.048C459.191 191.503 459.338 190.971 459.582 190.483C459.827 189.994 460.166 189.559 460.579 189.201C460.993 188.844 461.472 188.571 461.991 188.399C462.51 188.227 463.057 188.159 463.602 188.198C464.851 188.111 466.088 188.497 467.065 189.28C468.042 190.063 468.689 191.185 468.877 192.423C469.505 192.117 470.03 191.635 470.39 191.036C470.749 190.437 470.927 189.746 470.902 189.048C470.902 186.823 468.652 185.323 465.777 185.323C461.977 185.323 459.502 187.348 456.852 190.348L454.602 188.023C455.507 187.286 456.741 186.254 457.925 185.264C459.029 184.34 460.09 183.452 460.802 182.873C461.293 182.463 461.936 181.935 462.616 181.376C463.843 180.37 465.189 179.264 465.977 178.573C464.702 178.598 461.302 178.748 460.002 178.848C459.324 178.873 458.647 178.939 457.977 179.048L457.877 175.823C458.577 175.898 459.427 175.948 460.127 175.948C461.427 175.948 466.727 175.823 468.127 175.698ZM462.077 191.748C462.077 192.673 463.127 193.298 464.577 193.298C465.061 193.3 465.545 193.275 466.027 193.223C465.877 191.623 464.952 190.573 463.602 190.573C462.677 190.573 462.077 191.123 462.077 191.748Z" fill="black"/>
<path d="M497.552 177.273C498.336 177.295 499.119 177.202 499.877 176.998L502.377 179.048C502.06 179.369 501.775 179.721 501.527 180.098C499.213 183.782 496.337 187.08 493.002 189.873C494.427 191.298 495.902 192.923 496.877 194.098L493.952 196.423C492.455 194.542 490.861 192.739 489.177 191.023C487.456 189.299 485.618 187.695 483.677 186.223L486.327 184.098C487.327 184.848 488.977 186.198 490.552 187.573C493.071 185.56 495.22 183.124 496.902 180.373H483.677C482.677 180.373 481.327 180.498 480.802 180.548V177.048C481.755 177.181 482.715 177.256 483.677 177.273H497.552Z" fill="black"/>
<path d="M512.127 187.023C510.702 187.023 509.027 187.073 508.102 187.148V183.223C509.002 183.298 510.827 183.373 512.127 183.373H525.552C526.577 183.373 527.582 183.294 528.248 183.241C528.33 183.234 528.406 183.228 528.477 183.223V187.148C528.303 187.141 528.073 187.127 527.808 187.112C527.158 187.074 526.298 187.023 525.552 187.023H512.127Z" fill="black"/>
<path d="M543.267 177.745C543.114 178.159 542.945 178.616 542.752 179.073H553.527C554.397 179.084 555.266 179.025 556.127 178.898V182.323C555.263 182.246 554.395 182.213 553.527 182.223H550.027C549.577 188.873 546.977 193.323 542.452 196.173L539.077 193.923C539.934 193.577 540.734 193.105 541.452 192.523C544.077 190.523 546.152 187.448 546.552 182.223H541.277C540.228 184.179 538.869 185.952 537.252 187.473L534.102 185.573C535.836 184.125 537.301 182.381 538.427 180.423C539.042 179.351 539.529 178.209 539.877 177.023C540.167 176.192 540.343 175.326 540.402 174.448L544.252 175.223C544.017 175.757 543.745 176.474 543.546 176.999C543.513 177.088 543.481 177.172 543.452 177.248C543.393 177.404 543.331 177.571 543.267 177.745Z" fill="black"/>
<path d="M569.952 180.898L572.927 179.923C573.402 180.998 574.627 184.248 574.977 185.398L571.977 186.448C571.434 184.552 570.758 182.698 569.952 180.898Z" fill="black"/>
<path d="M575.452 189.198C577.281 186.687 578.379 183.719 578.627 180.623L582.152 181.748C581.882 182.469 581.733 182.967 581.597 183.424C581.582 183.474 581.567 183.524 581.552 183.573C580.924 186.219 579.768 188.711 578.152 190.898C575.974 193.685 573.079 195.828 569.777 197.098L567.152 194.423C570.376 193.544 573.266 191.725 575.452 189.198Z" fill="black"/>
<path d="M564.127 182.323L567.127 181.248C567.752 182.523 568.952 185.548 569.452 186.948L566.402 188.098C565.763 186.128 565.003 184.2 564.127 182.323Z" fill="black"/>
<path d="M598.827 181.723C602.395 182.775 605.886 184.07 609.277 185.598L607.852 189.048C604.931 187.604 601.916 186.36 598.827 185.323V192.398C598.827 193.123 598.952 194.873 599.052 195.873H595.152C595.311 194.721 595.394 193.561 595.402 192.398V178.048C595.407 177.034 595.323 176.022 595.152 175.023H599.052C598.921 176.026 598.846 177.036 598.827 178.048V181.723Z" fill="black"/>
<path d="M631.052 178.873C631.849 178.434 632.61 177.933 633.327 177.373L635.052 180.248C634.302 180.698 633.502 181.123 632.602 181.573C630.24 182.679 627.937 183.905 625.702 185.248C623.627 186.598 622.252 188.023 622.252 189.748C622.252 191.523 623.977 192.473 627.402 192.473C630.125 192.44 632.838 192.139 635.502 191.573L635.452 195.148C632.823 195.566 630.164 195.767 627.502 195.748C622.577 195.748 618.852 194.373 618.852 190.123C618.852 187.373 620.577 185.348 622.952 183.598C621.802 181.473 620.602 178.848 619.477 176.223L622.602 174.948C623.486 177.296 624.522 179.584 625.702 181.798C627.057 181.012 628.467 180.26 629.604 179.653C630.167 179.353 630.663 179.088 631.052 178.873Z" fill="black"/>
<path d="M658.802 177.798C660.92 178.754 662.959 179.874 664.902 181.148L663.152 183.773C661.298 182.393 659.303 181.211 657.202 180.248L658.802 177.798Z" fill="black"/>
<path d="M652.252 178.123C653.376 177.937 654.487 177.679 655.577 177.348L655.652 180.223C654.237 180.593 652.801 180.877 651.352 181.073C650.053 184.821 648.271 188.385 646.052 191.673L643.027 190.148C645.095 187.471 646.793 184.528 648.077 181.398C647.652 181.423 647.227 181.423 646.802 181.423C645.777 181.423 644.777 181.398 643.702 181.348L643.477 178.448C644.573 178.564 645.675 178.623 646.777 178.623C647.502 178.623 648.252 178.598 649.002 178.548C649.365 177.191 649.591 175.8 649.677 174.398L653.102 174.748C653.05 174.954 652.992 175.191 652.928 175.45C652.744 176.198 652.512 177.14 652.252 178.123Z" fill="black"/>
<path fill-rule="evenodd" clip-rule="evenodd" d="M655.856 183.971C655.827 183.42 655.8 182.903 655.777 182.448H658.902C658.84 183.312 658.863 184.159 658.887 185.045C658.892 185.236 658.898 185.428 658.902 185.623C658.927 186.323 658.977 187.523 659.052 188.748C660.941 189.482 662.678 190.559 664.177 191.923L662.527 194.573C661.498 193.592 660.376 192.713 659.177 191.948V192.173C659.177 194.473 657.927 196.273 654.402 196.273C651.327 196.273 648.902 194.898 648.902 192.173C648.902 189.748 650.927 187.873 654.377 187.873C654.952 187.873 655.527 187.923 656.052 187.973C656 186.684 655.923 185.237 655.856 183.971ZM653.952 193.423C655.627 193.423 656.177 192.448 656.177 191.123V190.648C655.522 190.488 654.851 190.404 654.177 190.398C652.752 190.398 651.827 190.998 651.827 191.873C651.827 192.798 652.602 193.423 653.952 193.423Z" fill="black"/>
<path d="M689.202 191.648C690.442 191.482 691.575 190.858 692.377 189.898L692.802 193.373C691.562 194.59 689.889 195.264 688.152 195.248C686.302 195.248 685.052 193.873 685.052 191.498C685.052 190.087 685.291 188.422 685.519 186.834C685.728 185.384 685.927 183.997 685.927 182.923C685.927 181.698 685.302 181.098 684.277 181.098C682.427 181.098 679.727 183.373 677.727 185.598L677.724 185.676C677.7 186.348 677.677 186.996 677.677 187.598C677.677 189.623 677.677 191.698 677.827 194.023C677.844 194.323 677.894 194.822 677.94 195.285C677.963 195.517 677.985 195.739 678.002 195.923H674.602C674.652 195.398 674.677 194.498 674.677 194.098C674.703 193.106 674.715 192.247 674.728 191.359C674.74 190.525 674.753 189.666 674.777 188.648C674.421 189.169 674.052 189.718 673.686 190.261C672.946 191.359 672.221 192.437 671.652 193.223L669.702 190.473C671.102 188.773 673.602 185.473 675.002 183.398L675.102 181.673C674.526 181.745 673.788 181.84 673.021 181.939C672.192 182.046 671.33 182.157 670.602 182.248L670.302 179.073C671.019 179.101 671.736 179.093 672.452 179.048C673.177 178.998 674.252 178.873 675.302 178.723C675.319 178.401 675.337 178.106 675.352 177.847C675.381 177.362 675.402 177.002 675.402 176.823C675.43 176.088 675.397 175.352 675.302 174.623L678.927 174.723C678.777 175.423 678.577 176.698 678.377 178.248L679.302 179.423C678.977 179.848 678.452 180.648 678.027 181.298C678.023 181.474 678.006 181.649 677.977 181.823C679.927 180.123 682.777 178.148 685.177 178.148C687.827 178.148 689.077 179.723 689.077 181.798C689.077 183.086 688.871 184.636 688.664 186.186C688.458 187.736 688.252 189.286 688.252 190.573C688.252 191.223 688.577 191.648 689.202 191.648Z" fill="black"/>
<path fill-rule="evenodd" clip-rule="evenodd" d="M698.627 189.281C699.293 188.836 700.076 188.598 700.877 188.598C701.95 188.601 702.979 189.028 703.738 189.787C704.497 190.546 704.924 191.575 704.927 192.648C704.927 193.449 704.689 194.232 704.244 194.898C703.799 195.564 703.167 196.083 702.427 196.39C701.687 196.696 700.873 196.776 700.087 196.62C699.301 196.464 698.58 196.078 698.013 195.512C697.447 194.945 697.061 194.224 696.905 193.438C696.749 192.653 696.829 191.838 697.135 191.098C697.442 190.358 697.961 189.726 698.627 189.281ZM699.636 194.489C700.002 194.737 700.434 194.871 700.877 194.873C701.171 194.876 701.463 194.82 701.735 194.71C702.008 194.599 702.256 194.436 702.465 194.229C702.674 194.022 702.84 193.776 702.954 193.505C703.068 193.233 703.126 192.942 703.127 192.648C703.13 192.205 703.001 191.772 702.757 191.402C702.513 191.033 702.165 190.744 701.757 190.572C701.349 190.401 700.9 190.354 700.465 190.438C700.03 190.522 699.63 190.732 699.315 191.044C699.001 191.355 698.785 191.753 698.697 192.186C698.608 192.62 698.65 193.07 698.817 193.48C698.984 193.89 699.269 194.241 699.636 194.489Z" fill="black"/>
<path d="M196.411 174.294H164.04C161.831 174.294 160.04 176.085 160.04 178.294V195.754C160.04 197.963 161.831 199.754 164.04 199.754H196.411C198.62 199.754 200.411 197.963 200.411 195.754V178.294C200.411 176.085 198.62 174.294 196.411 174.294Z" fill="#DB1D31"/>
<path d="M9.99899 202.711H14.26V196.519C14.26 194.855 14.0554 193.027 13.8673 191.347C13.8005 190.75 13.7357 190.171 13.683 189.625H13.808L15.639 193.712L20.251 202.712H24.814V184.061H20.552V190.228C20.6165 192.536 20.8168 194.838 21.152 197.122H21.027L19.199 192.985L14.561 184.061H9.99899V202.711Z" fill="#DB1D31"/>
<path d="M29.899 202.711H34.386V195.592H40.753V191.857H34.389V187.771H41.809V184.061H29.902L29.899 202.711Z" fill="#DB1D31"/>
<path d="M49.399 202.711H53.886V187.771H58.95V184.061H44.366V187.771H49.405L49.399 202.711Z" fill="#DB1D31"/>
<path d="M9.99899 228.203H14.01V221.811C13.9309 219.645 13.7383 217.485 13.433 215.34H13.533L15.033 219.802L17.565 226.62H20.022L22.529 219.802L24.084 215.34H24.184C23.8788 217.484 23.6862 219.643 23.607 221.807V228.199H27.693V209.553H22.833L19.976 217.6C19.8041 218.128 19.6441 218.68 19.4815 219.241C19.3121 219.826 19.1398 220.421 18.948 221.009H18.822C18.6972 220.599 18.5788 220.186 18.4611 219.776C18.2476 219.031 18.0363 218.295 17.794 217.6L14.837 209.553H9.99899V228.203Z" fill="#DB1D31"/>
<path fill-rule="evenodd" clip-rule="evenodd" d="M42.611 228.203H47.324L41.533 209.553H36.169L30.378 228.203H34.94L36.018 223.916H41.533L42.611 228.203ZM36.871 220.457L37.271 218.878C37.7363 217.065 38.2264 214.94 38.6694 213.019L38.7 212.887H38.8C39.0348 213.781 39.2647 214.748 39.4944 215.713C39.7539 216.804 40.0133 217.894 40.279 218.878L40.679 220.457H36.871Z" fill="#DB1D31"/>
<path fill-rule="evenodd" clip-rule="evenodd" d="M65.118 228.203L60.957 220.808C61.9756 220.341 62.8281 219.576 63.4012 218.614C63.9744 217.651 64.2411 216.537 64.166 215.419C64.166 210.907 60.857 209.553 56.871 209.553H50.031V228.203H54.518V221.64H56.674L60.108 228.208L65.118 228.203ZM54.518 213.087H56.524C58.655 213.087 59.783 213.664 59.783 215.418C59.783 217.172 58.655 218.1 56.524 218.1H54.518V213.087Z" fill="#DB1D31"/>
<path d="M68.527 228.203H73.014V223.315L75.044 220.558L79.431 228.204H84.344L77.651 217.024L83.291 209.554H78.384L73.095 216.924H73.02V209.554H68.531L68.527 228.203Z" fill="#DB1D31"/>
<path d="M87.027 228.203H99.138V224.44H91.518V220.482H97.76V216.722H91.518V213.263H98.863V209.553H87.031L87.027 228.203Z" fill="#DB1D31"/>
<path d="M107.181 228.203H111.668V213.263H116.732V209.553H102.146V213.263H107.184L107.181 228.203Z" fill="#DB1D31"/>
<path fill-rule="evenodd" clip-rule="evenodd" d="M120.366 228.203H124.853V222.011H127.034C130.97 222.011 134.404 220.056 134.404 215.619C134.404 211.007 131.02 209.553 126.904 209.553H120.361L120.366 228.203ZM124.853 218.477V213.087H126.683C128.839 213.087 130.042 213.739 130.042 215.619C130.042 217.449 128.989 218.477 126.808 218.477H124.853Z" fill="#DB1D31"/>
<path d="M138.339 228.203H150.07V224.44H142.826V209.553H138.339V228.203Z" fill="#DB1D31"/>
<path fill-rule="evenodd" clip-rule="evenodd" d="M163.707 228.203H168.42L162.629 209.553H157.265L151.474 228.203H156.036L157.114 223.916H162.629L163.707 228.203ZM157.967 220.457L158.367 218.878C158.832 217.065 159.322 214.941 159.765 213.021L159.765 213.02L159.796 212.887H159.896C160.131 213.782 160.361 214.748 160.59 215.714C160.85 216.804 161.109 217.894 161.375 218.878L161.775 220.457H157.967Z" fill="#DB1D31"/>
<path d="M178.722 228.554C179.879 228.577 181.026 228.342 182.08 227.865C183.133 227.388 184.067 226.681 184.813 225.797L182.457 222.989C182.016 223.506 181.471 223.925 180.858 224.218C180.244 224.51 179.576 224.671 178.897 224.689C176.265 224.689 174.56 222.533 174.56 218.823C174.56 215.188 176.54 213.032 178.947 213.032C179.555 213.05 180.154 213.187 180.709 213.437C181.264 213.686 181.764 214.043 182.181 214.486L184.537 211.628C183.802 210.866 182.923 210.258 181.95 209.84C180.977 209.422 179.931 209.203 178.872 209.196C174.134 209.196 169.972 212.756 169.972 218.972C169.978 225.295 173.989 228.554 178.727 228.554H178.722Z" fill="#DB1D31"/>
<path d="M188.298 228.203H200.406V224.44H192.786V220.482H199.028V216.722H192.786V213.263H200.131V209.553H188.303L188.298 228.203Z" fill="#DB1D31"/>
<path d="M602.801 268.827V239.327H620.501V245.227H608.701V251.127H620.501V262.927H614.601V257.027H608.701V268.827H602.801Z" fill="#DB1D31"/>
<path d="M620.501 262.927H626.401V268.827H620.501V262.927Z" fill="#DB1D31"/>
<path d="M620.501 251.127H626.401V245.227H620.501V251.127Z" fill="#DB1D31"/>
<path d="M651.417 268.827H645.517V245.227H651.417V251.127H663.217V245.227H669.117V268.827H663.217V257.027H651.417V268.827Z" fill="#DB1D31"/>
<path d="M663.217 245.227V239.327H651.417V245.227H663.217Z" fill="#DB1D31"/>
<path d="M688.407 268.827H694.307V257.027H700.207V262.927H706.107V268.827H712.007V262.927H706.107V257.027H700.207V251.127H706.107V245.227H712.007V239.327H706.107V245.227H700.207V251.127H694.307V239.327H688.407V268.827Z" fill="#DB1D31"/>
<path d="M731.018 239.327H736.918V262.927H731.018V239.327Z" fill="#DB1D31"/>
<path d="M748.718 262.927V268.827H736.918V262.927H748.718Z" fill="#DB1D31"/>
<path d="M748.718 262.927V239.327H754.618V262.927H748.718Z" fill="#DB1D31"/>
<path d="M784.985 251.127H790.885V239.327H773.185V245.227H784.985V251.127Z" fill="#DB1D31"/>
<path d="M779.085 257.027V251.127H784.985V257.027H779.085Z" fill="#DB1D31"/>
<path d="M779.085 257.027V262.927H790.885V268.827H773.185V257.027H779.085Z" fill="#DB1D31"/>
<path d="M815.788 268.827H809.888V245.227H815.788V251.127H827.588V245.227H833.488V268.827H827.588V257.027H815.788V268.827Z" fill="#DB1D31"/>
<path d="M827.588 245.227V239.327H815.788V245.227H827.588Z" fill="#DB1D31"/>
<path d="M171.335 194.022H175.705L180.252 179.561H176.419L173.694 190.349H173.53L170.764 179.561H166.717L171.335 194.022ZM186.085 184.075C186.085 184.05 186.085 184.016 186.085 183.975C186.085 183.934 186.085 183.894 186.085 183.855C186.083 183.539 186.159 183.228 186.307 182.949C186.454 182.669 186.675 182.436 186.946 182.273C187.246 182.099 187.588 182.012 187.935 182.022C188.268 182.016 188.597 182.095 188.89 182.253C189.161 182.399 189.388 182.614 189.55 182.876C189.712 183.142 189.796 183.448 189.791 183.759C189.793 184.118 189.711 184.472 189.552 184.794C189.39 185.119 189.189 185.423 188.952 185.699C188.709 185.982 188.461 186.253 188.206 186.514L183.006 191.882V194.022H193.435V191.268H187.713V191.122L190.635 188.008C191.035 187.586 191.431 187.155 191.823 186.716C192.218 186.277 192.551 185.787 192.814 185.259C193.09 184.682 193.227 184.048 193.214 183.409C193.224 182.659 192.999 181.925 192.572 181.309C192.112 180.664 191.486 180.156 190.76 179.839C189.893 179.46 188.953 179.275 188.007 179.297C187.213 179.279 186.424 179.414 185.682 179.697C185.075 179.933 184.525 180.295 184.069 180.76C183.659 181.183 183.338 181.685 183.126 182.235C182.923 182.759 182.818 183.317 182.817 183.879V184.07L186.085 184.075Z" fill="white"/>
<path d="M49.509 72.592C54.1079 72.592 57.836 68.8639 57.836 64.265C57.836 59.6661 54.1079 55.938 49.509 55.938C44.9101 55.938 41.182 59.6661 41.182 64.265C41.182 68.8639 44.9101 72.592 49.509 72.592Z" fill="url(#paint0_linear_0_3)"/>
</g>
<defs>
<linearGradient id="paint0_linear_0_3" x1="49.509" y1="72.592" x2="49.509" y2="55.938" gradientUnits="userSpaceOnUse">
<stop stop-color="#E62310"/>
<stop offset="0.163" stop-color="#E72C0F"/>
<stop offset="0.429" stop-color="#E9440B"/>
<stop offset="0.762" stop-color="#ED6C05"/>
<stop offset="1" stop-color="#F08C00"/>
</linearGradient>
<clipPath id="clip0_0_3">
<rect width="834.09" height="269.79" fill="white"/>
</clipPath>
</defs>
</svg>
