<svg height="166.198" viewBox="0 0 300.301 166.198" width="300.301" xmlns="http://www.w3.org/2000/svg"><path d="m5.24-14.24-3.04-.04a11.478 11.478 0 0 1 .14 2c0 1.22.04 3.52.22 5.34.56 5.32 2.46 7.28 4.62 7.28 1.6 0 2.84-1.22 4.16-4.66l-2-2.4c-.38 1.56-1.16 3.88-2.1 3.88-1.24 0-1.84-1.94-2.12-4.8-.12-1.42-.14-2.92-.12-4.2a15.694 15.694 0 0 1 .24-2.4zm9.9.42-2.52.84c2.16 2.44 3.22 7.1 3.52 10.28l2.62-1c-.22-3.04-1.74-7.82-3.62-10.12zm10.14 7.48a13.425 13.425 0 0 0 -.56 3.26c0 2.76 2.14 4.26 6.12 4.26a27.576 27.576 0 0 0 5.34-.48l.06-2.62a23.03 23.03 0 0 1 -5.4.56c-2.8 0-3.54-.96-3.54-2.4a8.517 8.517 0 0 1 .56-2.38zm10.56-9.58a16.709 16.709 0 0 1 1.24 2.14 27.854 27.854 0 0 1 -2.76.66 30.955 30.955 0 0 1 -1.14-3.02l-2.82.54a13.046 13.046 0 0 1 .98 1.9l.42.94a33.744 33.744 0 0 1 -7.4-.2l.08 2.54a44.723 44.723 0 0 0 8.36 0c.56 1.24 1.26 2.6 1.72 3.6-.6-.04-1.66-.14-2.34-.2l-.22 2.04c1.48.18 3.44.48 4.5.7l1.4-1.48c-.86-1.58-1.8-3.46-2.54-5.06 1.18-.24 2.34-.52 3.36-.8l-.36-1.92.68-.3a27.511 27.511 0 0 0 -1.58-2.74zm2.38-.86a21.2 21.2 0 0 1 1.62 2.76l1.58-.7a31.281 31.281 0 0 0 -1.62-2.72zm11.22 4a14.776 14.776 0 0 0 -3.2-2.92l-1.64 1.36a14.177 14.177 0 0 1 3.1 3.1zm-.44 1.8c-1.76.94-3.54 1.9-4.74 2.44l1.18 1.96c1.26-.7 2.82-1.64 4.2-2.5zm2.9.86h3.28v1.36h-3.28zm3.28-1.7h-3.28v-1.32h3.28zm7.32 8.26v-2.06h-7.72v-1.34h2.72v-2.34a26.609 26.609 0 0 1 4 2.66l1.46-1.78a29.481 29.481 0 0 0 -4.58-2.74l-.88 1v-2.48l1.56 1.04a29.892 29.892 0 0 0 3.36-3.14l-2.04-1.22a22.542 22.542 0 0 1 -2.88 3v-2h-3.04c.2-.52.44-1.1.66-1.7l-2.64-.28a17.7 17.7 0 0 1 -.42 1.98h-2.36v8h2.68v1.34h-7.66v2.06h5.7a18.024 18.024 0 0 1 -6.22 3.12 12.1 12.1 0 0 1 1.6 2 18.988 18.988 0 0 0 6.58-4.1v4.24h2.4v-4.18a19.346 19.346 0 0 0 6.64 3.88 12.633 12.633 0 0 1 1.58-2 18.677 18.677 0 0 1 -6.26-2.96zm22.06-8.54v-2.32h-7.94v-2.6h-2.54v2.6h-7.76v2.32h7.78v2.1h-5.9v9.34h2.4v-7.02h3.5v9.44h2.48v-9.44h3.82v4.4c0 .22-.1.32-.42.32s-1.5 0-2.5-.04a8.536 8.536 0 0 1 .8 2.34 9.537 9.537 0 0 0 3.54-.4c.82-.36 1.06-1.04 1.06-2.18v-6.76h-6.3v-2.1zm9.88 11.64a37.488 37.488 0 0 0 -4.36-4.38l-2.08 1.8a37.537 37.537 0 0 1 4.3 4.42z" transform="translate(-.462 163.868)"/><path d="m6.18-15.84-1.46 2.2c1.32.74 3.4 2.1 4.52 2.88l1.5-2.22c-1.04-.72-3.24-2.12-4.56-2.86zm-3.72 14.2 1.5 2.64a24.336 24.336 0 0 0 6.68-2.48 24.149 24.149 0 0 0 7.96-7.18l-1.54-2.72a20.388 20.388 0 0 1 -7.78 7.5 22.193 22.193 0 0 1 -6.82 2.24zm.64-9.64-1.46 2.22a52.234 52.234 0 0 1 4.56 2.84l1.46-2.24c-1.02-.72-3.22-2.1-4.56-2.82zm23.52-3.92-1.88 2a41.585 41.585 0 0 1 5 4.32l2.04-2.1a42 42 0 0 0 -5.16-4.22zm-2.5 13.32 1.68 2.64a21.659 21.659 0 0 0 7.42-2.82 21.267 21.267 0 0 0 7.4-7.4l-1.56-2.82a18.965 18.965 0 0 1 -7.28 7.78 20.614 20.614 0 0 1 -7.66 2.62z" transform="translate(108.19 163.868)"/><path d="m18.96-6.66v-2.36h-7.7v-2.56h6.26v-2.36h-6.26v-2.98h-2.54v2.98h-6.08v2.36h6.08v2.56h-7.58v2.36h6.48a19.392 19.392 0 0 1 -7.16 5.48 12.162 12.162 0 0 1 1.76 2.06 21.963 21.963 0 0 0 6.5-5.36v6.24h2.54v-6.36a21.075 21.075 0 0 0 6.5 5.5 11.335 11.335 0 0 1 1.72-2.06 19.517 19.517 0 0 1 -7.12-5.5zm11.58-5.82v4.22h-3.46l1.9-.74a14.25 14.25 0 0 0 -1.7-3.48zm5.9 0a22.524 22.524 0 0 1 -1.7 3.64l1.68.58h-3.36v-4.22zm4.3 6.5v-2.28h-3.88a36.892 36.892 0 0 0 2.1-3.54l-2.3-.68h3.32v-2.28h-6.92v-2.18h-2.52v2.18h-6.74v2.28h3.4l-2.06.78a13.95 13.95 0 0 1 1.5 3.44h-3.78v2.28h6.28a18.88 18.88 0 0 1 -6.84 5 11.287 11.287 0 0 1 1.68 2 20.753 20.753 0 0 0 6.56-5.4v6.1h2.52v-6.14a20.223 20.223 0 0 0 6.54 5.48 11.164 11.164 0 0 1 1.66-2 18.544 18.544 0 0 1 -6.78-5.04zm15.32 3.1c-.02-.9-.06-2.36-.08-3.46 1.22-.56 2.34-1 3.22-1.34a21 21 0 0 1 2.36-.84l-1-2.3c-.72.34-1.42.68-2.18 1.02-.82.36-1.66.7-2.68 1.18a2.7 2.7 0 0 0 -2.64-1.54 6.2 6.2 0 0 0 -2.24.4 12.1 12.1 0 0 0 1.14-2 64.522 64.522 0 0 0 6.46-.52l.02-2.32a45.736 45.736 0 0 1 -5.6.58c.24-.8.38-1.48.48-1.96l-2.6-.22a11.022 11.022 0 0 1 -.4 2.26h-.96a25.411 25.411 0 0 1 -3.48-.22v2.32c1.08.1 2.54.14 3.34.14h.24a19.36 19.36 0 0 1 -4.36 5.44l2.12 1.58a25.366 25.366 0 0 1 1.84-2.18 4.9 4.9 0 0 1 3.1-1.36 1.548 1.548 0 0 1 1.38.68c-2.26 1.16-4.66 2.76-4.66 5.28 0 2.56 2.34 3.3 5.44 3.3a54.8 54.8 0 0 0 5.6-.32l.08-2.58a30.294 30.294 0 0 1 -5.62.58c-1.94 0-2.88-.3-2.88-1.4 0-.98.8-1.76 2.26-2.56-.02.86-.04 1.78-.08 2.36zm14.78-10.18c.52-.54.98-1.08 1.4-1.6.58.46 1.2 1.04 1.78 1.6zm3.2 3.96v.72h-4.1v-.72zm-4.16 2.9c.02-.26.04-.52.04-.76h4.12v.76zm4.54 4.16v1.42h-3.38v-1.42zm.16-9.42v-1.04c.42.44.78.84 1.06 1.16l1.52-1.76a39.451 39.451 0 0 0 -4.18-3.6h-2.12a13.84 13.84 0 0 1 -5.02 4.88 6.745 6.745 0 0 1 1.42 1.68c.22-.14.44-.3.66-.44v2.72c0 2.26-.22 5.46-1.98 7.76a7.487 7.487 0 0 1 1.56 1.42 9.49 9.49 0 0 0 1.54-2.92v3.3h2v-.62h3.38v.56h2.06v-5.38h-6.9c.06-.26.1-.54.14-.8h6.46v-6.22h-8a19.3 19.3 0 0 0 1.78-1.46v.76zm5.02-3.06h-2.24v11.26h2.24zm2.12-2.02v15.42c0 .34-.14.46-.5.46-.38 0-1.54 0-2.74-.04a9.729 9.729 0 0 1 .78 2.42 8.837 8.837 0 0 0 3.72-.48c.8-.36 1.06-1.02 1.06-2.34v-15.44zm15.3 15.34c-1.16 0-2-.5-2-1.24 0-.5.48-.94 1.22-.94 1.08 0 1.82.84 1.94 2.12a10.441 10.441 0 0 1 -1.16.06zm4.36-14.28a9.552 9.552 0 0 1 -1.52.2c-1.12.1-5.36.2-6.4.2-.56 0-1.24-.04-1.8-.1l.08 2.58a13.07 13.07 0 0 1 1.62-.16c1.04-.08 3.76-.2 4.78-.22-.98.86-3.04 2.52-4.14 3.44-1.18.96-3.56 2.98-4.96 4.12l1.8 1.86c2.12-2.4 4.1-4.02 7.14-4.02 2.3 0 4.1 1.2 4.1 2.98a2.888 2.888 0 0 1 -1.62 2.7 3.988 3.988 0 0 0 -4.22-3.38 3.328 3.328 0 0 0 -3.56 3.08c0 1.98 2.08 3.24 4.84 3.24 4.78 0 7.16-2.48 7.16-5.6 0-2.88-2.56-4.98-5.92-4.98a6.66 6.66 0 0 0 -1.86.22c1.24-1 3.32-2.76 4.38-3.5q.66-.45 1.38-.9zm13.08 11.88c-.74 0-1.54-.98-1.54-2.98a6.21 6.21 0 0 1 5.02-5.74 31.792 31.792 0 0 1 -1.06 4.8c-.8 2.68-1.6 3.92-2.42 3.92zm5.44 4.42c5-.76 7.56-3.72 7.56-7.88 0-4.32-3.1-7.74-8-7.74-5.14 0-9.12 3.92-9.12 8.48 0 3.34 1.86 5.76 4.04 5.76 2.16 0 3.88-2.44 5.06-6.44a43.043 43.043 0 0 0 1.18-5.38c2.66.46 4.14 2.5 4.14 5.24a5.362 5.362 0 0 1 -4.5 5.3c-.52.12-1.08.22-1.84.32zm13.86-16.44a14.861 14.861 0 0 1 -.18 1.94 58.7 58.7 0 0 0 -.82 8.26 23.89 23.89 0 0 0 .78 6.32l2.24-.16c-.02-.28-.02-.62-.02-.82a3.91 3.91 0 0 1 .1-.92 47.249 47.249 0 0 1 1.42-4.72l-1.22-.98c-.3.66-.62 1.32-.88 2.02a9.167 9.167 0 0 1 -.08-1.28 52.381 52.381 0 0 1 .94-7.66 16.645 16.645 0 0 1 .48-1.76zm10 12.3c0 1.16-.42 1.8-1.64 1.8-1.04 0-1.84-.36-1.84-1.16 0-.74.76-1.2 1.88-1.2a6.175 6.175 0 0 1 1.6.22zm6.26.8a12.572 12.572 0 0 0 -3.82-2.56c-.08-1.34-.18-2.92-.22-4.84 1.08-.08 2.12-.2 3.08-.34v-2.46c-.94.2-1.98.34-3.06.46 0-.88.04-1.62.06-2.06a12.648 12.648 0 0 1 .12-1.28h-2.84a11.2 11.2 0 0 1 .12 1.3c.02.42.02 1.22.04 2.2-.46.02-.94.02-1.4.02a32.842 32.842 0 0 1 -3.46-.18v2.36c1.18.08 2.3.12 3.46.12.46 0 .94 0 1.42-.02.02 1.4.08 2.84.14 4.06a8.9 8.9 0 0 0 -1.3-.08c-2.7 0-4.4 1.38-4.4 3.4 0 2.08 1.72 3.24 4.44 3.24 2.68 0 3.76-1.36 3.88-3.24a20.2 20.2 0 0 1 2.4 1.98zm9.82 2.06a37.489 37.489 0 0 0 -4.36-4.38l-2.08 1.8a37.538 37.538 0 0 1 4.3 4.42zm-150.96 31.28c0 1.3-.46 1.88-1.74 1.88-1.38 0-2.38-.36-2.38-1.34 0-.84.92-1.36 2.46-1.36a10.879 10.879 0 0 1 1.64.14c.02.26.02.5.02.68zm8.56.92a15.662 15.662 0 0 0 -6.02-3.4c-.1-1.46-.18-3.02-.22-4.22 1.6-.04 3.96-.12 5.62-.28l-.1-2.36c-1.64.18-3.96.26-5.52.3v-1.44c.04-.78.1-1.74.18-2.32h-2.98a12.566 12.566 0 0 1 .2 2.32c.02.84.04 2.02.04 3.22 0 1.04.08 2.74.14 4.28a11.366 11.366 0 0 0 -1.18-.06c-3.64 0-5.4 1.64-5.4 3.7 0 2.7 2.32 3.62 5.14 3.62 3.32 0 4.22-1.68 4.22-3.42 0-.2 0-.42-.02-.68a15.3 15.3 0 0 1 4.38 3.1zm8.5-13.86c-.02.56-.06 1.36-.16 2.08a48.032 48.032 0 0 0 -.56 6.34 25.621 25.621 0 0 0 .24 3.3l2.46-.16a11.894 11.894 0 0 1 -.1-2.1c.1-2.6 2.14-6.12 4.48-6.12 1.64 0 2.66 1.7 2.66 4.76 0 4.8-3.08 6.24-7.48 6.92l1.5 2.3c5.24-.96 8.68-3.64 8.68-9.24 0-4.36-2.14-7.06-4.9-7.06-2.24 0-3.96 1.68-4.9 3.2a32.337 32.337 0 0 1 .8-4.1zm22.58 14.64v-2.08h9.5v2.08zm9.5-6.34v2.06h-9.5v-2.06zm0-4.26v2.06h-9.5v-2.06zm-4.32-2.28c.32-.72.64-1.5.94-2.3l-2.88-.32a22.635 22.635 0 0 1 -.54 2.62h-5.12v16.08h2.42v-1h9.5v.98h2.54v-16.06zm22.44 12.68v-3.4h4.38v3.4zm-6.7-3.4h4.24v3.4h-4.24zm4.24-5.66v3.34h-4.24v-3.34zm6.84 0v3.34h-4.38v-3.34zm-4.38-2.4v-3.78h-2.46v3.78h-6.62v14.88h2.38v-1.06h11.08v1.04h2.5v-14.86zm29.54 2.22a35.639 35.639 0 0 0 -4.88-2.68l-1.28 1.96a26.407 26.407 0 0 1 4.76 2.82zm-7.46-3.04a20.92 20.92 0 0 1 -2.66.62c.28-1.06.52-2.06.68-2.7l-2.74-.28a16.863 16.863 0 0 1 -.54 3.32c-.6.04-1.2.06-1.78.06a25.176 25.176 0 0 1 -2.64-.14l.18 2.32c.86.04 1.66.06 2.48.06.34 0 .68 0 1.02-.02a30.219 30.219 0 0 1 -4.04 7l2.42 1.22a36.56 36.56 0 0 0 4.24-8.48 29.024 29.024 0 0 0 3.44-.68zm.48 11.02c0 1.06-.44 1.84-1.78 1.84-1.08 0-1.7-.5-1.7-1.24 0-.7.74-1.18 1.88-1.18a7.01 7.01 0 0 1 1.6.2zm-.32-6.94c.06 1.2.16 2.94.22 4.42-.42-.04-.88-.08-1.34-.08-2.76 0-4.38 1.5-4.38 3.44 0 2.18 1.94 3.28 4.4 3.28 2.82 0 3.82-1.44 3.82-3.28v-.18a17.632 17.632 0 0 1 2.68 2.1l1.32-2.12a13.194 13.194 0 0 0 -4.1-2.54c-.06-.98-.1-1.94-.12-2.5-.02-.88-.06-1.7 0-2.54zm26.16-3.82a6.413 6.413 0 0 1 -1.74.24h-4.02l.06-.1c.24-.44.74-1.34 1.22-2.04l-2.92-.96a9.622 9.622 0 0 1 -.9 2.1 17.61 17.61 0 0 1 -6.24 6.44l2.24 1.66a22.8 22.8 0 0 0 5.04-4.84h5.62a14.217 14.217 0 0 1 -2.84 5.46 15.939 15.939 0 0 1 -8.06 4.94l2.36 2.12a18.842 18.842 0 0 0 8.08-5.64 20.868 20.868 0 0 0 3.48-6.68 8.008 8.008 0 0 1 .66-1.44zm9.76-1.64a13.6 13.6 0 0 1 .08 1.52v6.74c0 .6-.08 1.38-.1 1.76h2.96c-.04-.46-.06-1.24-.06-1.74v-6.76c0-.64.02-1.08.06-1.52zm9.2-.18a14.111 14.111 0 0 1 .12 2v3.8c0 3.12-.26 4.62-1.62 6.12a9.36 9.36 0 0 1 -4.9 2.52l2.1 2.2a11.619 11.619 0 0 0 4.86-2.9c1.48-1.64 2.32-3.48 2.32-7.78v-3.96c0-.8.04-1.44.08-2zm20.04 12.38v-8.16h4.22c.58 0 1.28.04 1.88.08v-2.74c-.58.06-1.28.12-1.88.12h-10.88a14.682 14.682 0 0 1 -1.9-.12v2.74c.5-.04 1.36-.08 1.9-.08h3.86v8.16h-5.08a10.8 10.8 0 0 1 -1.96-.16v2.9a16.713 16.713 0 0 1 1.96-.1h13.18a15.508 15.508 0 0 1 1.86.1v-2.9a11.72 11.72 0 0 1 -1.86.16zm22.86-6.78a32.678 32.678 0 0 0 5.3-4.3l-2.14-1.94a21.109 21.109 0 0 1 -5.22 4.52 30.726 30.726 0 0 1 -9.1 3.62l1.44 2.44a39.1 39.1 0 0 0 6.88-2.72v6.56a22.4 22.4 0 0 1 -.14 2.62h3.16a13.75 13.75 0 0 1 -.18-2.62zm24.54-4.1a6.35 6.35 0 0 1 -1.74.22h-4.1l.02-.02c.24-.42.76-1.34 1.24-2.04l-2.9-.9a8.849 8.849 0 0 1 -.9 2.1 18.307 18.307 0 0 1 -6.38 6.64l2.16 1.66a23.536 23.536 0 0 0 5.28-5.16h5.74a14.568 14.568 0 0 1 -2.08 4.26c-1.34-.8-2.7-1.56-3.76-2.1l-1.7 1.9c1.02.58 2.38 1.4 3.74 2.28a16.913 16.913 0 0 1 -7.46 4.48l2.32 2.02a19.089 19.089 0 0 0 7.38-4.98 23.163 23.163 0 0 1 1.86 1.42l1.82-2.34c-.5-.36-1.18-.82-1.92-1.28a23.022 23.022 0 0 0 2.76-5.48 9.408 9.408 0 0 1 .66-1.42zm7.7 7.9c.74-.06 2.08-.1 3.22-.1h10.74c.84 0 1.86.08 2.34.1v-3.14c-.52.04-1.42.12-2.34.12h-10.74c-1.04 0-2.5-.06-3.22-.12zm34.1-3.64h-3.48l.54-.12a7.156 7.156 0 0 0 -.58-1.5h3.66c-.18.5-.4 1.06-.6 1.5zm-5.78-1.56a6.511 6.511 0 0 1 .62 1.56h-2.64v1.68h4.96v.9h-4.18v1.64h4.18v.94h-4.98v1.72h4.98v1.34h2.36v-1.34h5.2v-1.72h-5.2v-.94h4.4v-1.64h-4.4v-.9h5.16v-1.68h-2.98c.28-.42.58-.94.92-1.5l-.5-.12h2.76v-1.72h-5.36v-1.02h4.14v-1.64h-4.14v-1.18h-2.36v1.18h-3.94v1.64h3.94v1.02h-5.26v1.72h2.6zm-2.5-1.94a17.38 17.38 0 0 0 -3.14-3.18l-1.82 1.36a15.585 15.585 0 0 1 3 3.32zm-.54 4.08h-4.5v2.18h2.24v4.36a23.968 23.968 0 0 1 -2.48 1.84l1.12 2.36c1.02-.86 1.84-1.62 2.64-2.4 1.2 1.54 2.8 2.12 5.18 2.22 2.44.1 6.68.06 9.16-.06a10.842 10.842 0 0 1 .74-2.32c-2.76.22-7.48.28-9.88.18-2.04-.08-3.44-.64-4.22-1.98zm33.34-3.24a27.514 27.514 0 0 0 -1.58-2.74l-1.58.66a22.4 22.4 0 0 1 1.56 2.78zm-6.8 5.06a33.021 33.021 0 0 1 3.82-.22 28.375 28.375 0 0 1 3.4.26l.06-2.4a34.291 34.291 0 0 0 -3.48-.16 37.312 37.312 0 0 0 -3.8.2zm1.56-6.34c-1.08.26-2.2.48-3.32.64l.16-.74c.1-.44.28-1.32.42-1.88l-3.02-.24a10.433 10.433 0 0 1 -.08 2.02c-.04.3-.1.7-.18 1.12-.6.04-1.18.06-1.76.06a19.185 19.185 0 0 1 -2.5-.14l.06 2.46c.7.04 1.44.08 2.4.08.4 0 .84-.02 1.3-.04-.12.56-.28 1.12-.42 1.66a44.125 44.125 0 0 1 -3.42 8.92l2.78.92a64.738 64.738 0 0 0 3.14-9.16c.22-.82.42-1.7.6-2.54a35.649 35.649 0 0 0 3.84-.66zm-2.78 8.78a13.2 13.2 0 0 0 -.34 2.64c0 2 1.7 3.16 5.04 3.16a31.692 31.692 0 0 0 4.04-.28l.1-2.54a24.948 24.948 0 0 1 -4.12.4c-2.12 0-2.62-.66-2.62-1.52a7.012 7.012 0 0 1 .28-1.66zm7.22-10.5a21.2 21.2 0 0 1 1.62 2.76l1.58-.68a23.67 23.67 0 0 0 -1.62-2.72zm9 10.46a3.24 3.24 0 1 0 3.24 3.24 3.248 3.248 0 0 0 -3.24-3.24zm0 5.02a1.79 1.79 0 1 1 1.8-1.78 1.784 1.784 0 0 1 -1.8 1.78z" transform="translate(-.462 16.94)"/><path d="m2.43.66a8.688 8.688 0 0 0 2.67-4.3 33.1 33.1 0 0 0 .45-6.45 9.566 9.566 0 0 1 .105-1.35h-2.205a5.475 5.475 0 0 1 .135 1.365 25.848 25.848 0 0 1 -.435 5.935 7.076 7.076 0 0 1 -2.55 3.585zm6.36.04a3.824 3.824 0 0 1 .66-.45 16.516 16.516 0 0 0 5.085-4.1l-1.155-1.64a9.5 9.5 0 0 1 -3.705 3.165v-7.845a7.617 7.617 0 0 1 .105-1.3h-2.235a6.65 6.65 0 0 1 .12 1.29v8.74a5.708 5.708 0 0 1 -.12 1.11zm8.94-5.3c.555-.045 1.56-.075 2.415-.075h8.055c.63 0 1.4.06 1.755.075v-2.345c-.39.03-1.065.09-1.755.09h-8.055c-.78 0-1.875-.045-2.415-.09zm17.4 5.26a8.688 8.688 0 0 0 2.67-4.3 33.1 33.1 0 0 0 .45-6.45 9.567 9.567 0 0 1 .1-1.35h-2.2a5.475 5.475 0 0 1 .135 1.365 25.848 25.848 0 0 1 -.435 5.94 7.076 7.076 0 0 1 -2.55 3.58zm6.36.04a3.824 3.824 0 0 1 .66-.45 16.516 16.516 0 0 0 5.085-4.1l-1.155-1.64a9.5 9.5 0 0 1 -3.705 3.165v-7.845a7.617 7.617 0 0 1 .1-1.3h-2.23a6.65 6.65 0 0 1 .12 1.29v8.74a5.708 5.708 0 0 1 -.12 1.11zm16.665-11.44a22.684 22.684 0 0 0 -1.98-1.71l-1.365.96a21.462 21.462 0 0 1 1.935 1.77zm-7.185.375a12.32 12.32 0 0 1 .87 1.305c.225.39.435.81.66 1.26-.45.195-.9.39-1.335.555a8.842 8.842 0 0 1 -1.47.48l.87 1.9c.63-.285 1.575-.8 2.64-1.32l.39.915a44.754 44.754 0 0 1 1.995 6.17l2.055-.525c-.51-1.665-1.65-4.845-2.34-6.465l-.42-.915a12.109 12.109 0 0 1 4.365-1.35c1.125 0 1.77.615 1.77 1.38 0 1.065-.795 1.665-1.935 1.665a5.487 5.487 0 0 1 -2.04-.495l-.045 1.86a7.184 7.184 0 0 0 2.28.42c2.28 0 3.705-1.3 3.705-3.39 0-1.725-1.38-3.12-3.69-3.12a13.935 13.935 0 0 0 -5.115 1.5c-.225-.495-.465-.975-.69-1.41-.165-.27-.465-.885-.6-1.155zm15.43 6.435a10.932 10.932 0 0 1 -.76 3.48 7.962 7.962 0 0 1 1.245.6 12.7 12.7 0 0 0 .885-3.85zm2.07-2.385c.27-.345.525-.72.8-1.11a9.347 9.347 0 0 1 .45 1.035zm1.73 1.365a8.376 8.376 0 0 1 .2.85l1.245-.54a13.3 13.3 0 0 0 -1.2-3.27l-1.17.48c.66-.945 1.305-1.95 1.86-2.865l-1.41-.645c-.345.735-.795 1.6-1.29 2.445a7.724 7.724 0 0 0 -.48-.615c.525-.84 1.14-2.025 1.68-3.06l-1.515-.525a18.555 18.555 0 0 1 -1.08 2.61c-.12-.12-.24-.24-.36-.345l-.86 1.16a12.717 12.717 0 0 1 1.74 2.175c-.195.3-.4.6-.6.87-.435.015-.825.045-1.185.06l.18 1.545 1.98-.15v6.07h1.5v-6.19zm-.69 1.305a11.783 11.783 0 0 1 .69 2.76l1.245-.405a10.711 10.711 0 0 0 -.765-2.7zm6.66 3.225c0 .15-.06.2-.255.2s-.765.015-1.32 0l.51-.36a8.15 8.15 0 0 0 -1.35-1.575h2.415zm-2.79-5.865h1.365v.75h-1.365zm0-1.86h1.365v.75h-1.365zm4.425 0v.75h-1.405v-.75zm-1.405 2.61v-.75h1.41v.75zm3.525 1.92h-2.06v-.735h1.605v-4.98h-3.07v-.6h3.31v-1.37h-1.02l.465-.48a7.366 7.366 0 0 0 -1.71-.945l-.855.81a8.191 8.191 0 0 1 1.11.615h-1.3v-1.35h-1.65v1.35h-3.38v1.37h3.375v.6h-2.955v4.98h4.38v.735h-4.86v1.455h1.845l-.915.57a7.825 7.825 0 0 1 1.53 1.95l.78-.56a6.187 6.187 0 0 1 .465 1.5 5.481 5.481 0 0 0 2.175-.25c.54-.24.675-.66.675-1.425v-1.785h2.055zm5.235-8.475c-.015.42-.045 1.02-.12 1.56a36.023 36.023 0 0 0 -.42 4.755 19.216 19.216 0 0 0 .18 2.475l1.845-.12a8.921 8.921 0 0 1 -.075-1.575c.075-1.95 1.6-4.59 3.36-4.59 1.23 0 1.995 1.275 1.995 3.57 0 3.6-2.31 4.68-5.61 5.19l1.12 1.725c3.93-.72 6.51-2.73 6.51-6.93 0-3.27-1.605-5.295-3.675-5.295a4.592 4.592 0 0 0 -3.675 2.4 24.252 24.252 0 0 1 .6-3.075zm19.665 1.62.015 1.92a41.113 41.113 0 0 0 6.375 0v-1.92a30.309 30.309 0 0 1 -6.395 0zm-.51 6.2a9.155 9.155 0 0 0 -.255 1.935c0 1.515 1.215 2.445 3.78 2.445a20.647 20.647 0 0 0 3.84-.3l-.05-2.01a17.12 17.12 0 0 1 -3.72.39c-1.5 0-2.07-.39-2.07-1.05a4.889 4.889 0 0 1 .18-1.245zm-3.855-7.35a11.1 11.1 0 0 1 -.15 1.455 41.187 41.187 0 0 0 -.615 5.88 18.963 18.963 0 0 0 .585 4.86l1.71-.12c-.015-.21-.015-.45-.03-.615a4.364 4.364 0 0 1 .09-.69 35.815 35.815 0 0 1 1.06-3.65l-.93-.72c-.21.48-.45.975-.66 1.5a7.169 7.169 0 0 1 -.06-.96 36.727 36.727 0 0 1 .72-5.445 12.483 12.483 0 0 1 .36-1.32zm22.23 1.77h-1.69c-.18 2.745-.465 5.64-3.48 7.2a4.344 4.344 0 0 1 1.05 1.245 7.2 7.2 0 0 0 3.48-4.425 6.824 6.824 0 0 0 3.36 4.38 5.794 5.794 0 0 1 1.02-1.365c-2.4-1.05-3.345-3.6-3.765-6.84zm-5.31 8.82v-9.29h9.12v9.285zm-1.79-11v13.35h1.785v-.645h9.12v.645h1.86v-13.35zm21.11 2.1c.12-.93.24-1.695.33-2.115l-2.175-.06a7.923 7.923 0 0 1 .06 1.32c0 .165-.03.585-.06 1.14-.63.09-1.275.165-1.71.2a12.633 12.633 0 0 1 -1.29.015l.18 1.905c.84-.105 1.98-.255 2.7-.345l-.06 1.035c-.84 1.245-2.34 3.225-3.18 4.245l1.17 1.65c.51-.72 1.245-1.8 1.875-2.745-.03 1.26-.03 2.115-.06 3.27 0 .24-.015.78-.045 1.1h2.04c-.03-.33-.09-.87-.1-1.14-.09-1.4-.09-2.64-.09-3.855 0-.39.015-.81.03-1.23a6.219 6.219 0 0 1 4.215-1.9 2.263 2.263 0 0 1 2.415 2.2c0 2.325-1.86 3.375-4.47 3.78l.885 1.8c3.69-.735 5.565-2.535 5.565-5.535a3.925 3.925 0 0 0 -4.1-4.005 7.247 7.247 0 0 0 -4.365 1.545c.015-.15.015-.285.03-.435.255-.39.57-.87.765-1.125zm24 6.99a3 3 0 0 1 -1.9 1.05c-.375 0-.57-.255-.57-.645 0-1.545.495-3.72.495-5.265a2.084 2.084 0 0 0 -2.34-2.19c-1.44 0-3.15 1.185-4.32 2.2a2.238 2.238 0 0 0 .03-.315c.255-.39.57-.87.765-1.125l-.555-.7c.12-.93.24-1.695.33-2.115l-2.175-.06a7.923 7.923 0 0 1 .06 1.32c0 .165-.03.585-.06 1.14-.63.09-1.275.165-1.71.2a12.633 12.633 0 0 1 -1.29.015l.18 1.905c.84-.105 1.98-.255 2.7-.345l-.06 1.035c-.84 1.245-2.34 3.225-3.18 4.245l1.17 1.65c.51-.7 1.23-1.8 1.875-2.745-.03 1.26-.03 2.115-.06 3.27 0 .24-.015.78-.045 1.1h2.04c-.03-.33-.09-.87-.1-1.14-.09-1.4-.09-2.64-.09-3.855 0-.375.015-.78.03-1.2 1.2-1.335 2.82-2.7 3.93-2.7.615 0 .99.36.99 1.095 0 1.35-.525 3.525-.525 5.145 0 1.425.75 2.25 1.86 2.25a3.932 3.932 0 0 0 2.79-1.125zm16.21-5.25a26.729 26.729 0 0 0 -3.66-2.01l-.96 1.47a19.805 19.805 0 0 1 3.57 2.115zm-5.6-2.28a15.691 15.691 0 0 1 -1.995.465c.21-.8.39-1.545.51-2.025l-2.055-.21a12.647 12.647 0 0 1 -.4 2.49c-.45.03-.9.045-1.335.045a18.882 18.882 0 0 1 -1.98-.1l.135 1.74c.645.03 1.245.045 1.86.045.255 0 .51 0 .765-.015a22.665 22.665 0 0 1 -3.03 5.25l1.815.915a27.42 27.42 0 0 0 3.18-6.36 21.768 21.768 0 0 0 2.58-.51zm.36 8.265c0 .795-.33 1.38-1.335 1.38-.81 0-1.275-.375-1.275-.93 0-.525.555-.885 1.41-.885a5.257 5.257 0 0 1 1.2.15zm-.24-5.2c.045.9.12 2.2.165 3.315-.315-.03-.66-.06-1.005-.06-2.07 0-3.285 1.125-3.285 2.58 0 1.635 1.455 2.46 3.3 2.46 2.115 0 2.865-1.08 2.865-2.46v-.14a13.224 13.224 0 0 1 2.01 1.575l.99-1.59a9.9 9.9 0 0 0 -3.075-1.9c-.045-.735-.075-1.455-.09-1.875-.015-.66-.045-1.275 0-1.9zm11.6-3.27-2.28-.03a8.608 8.608 0 0 1 .105 1.5c0 .915.03 2.64.165 4.005.42 3.99 1.845 5.46 3.465 5.46 1.2 0 2.13-.915 3.12-3.5l-1.5-1.8c-.285 1.17-.87 2.91-1.575 2.91-.93 0-1.38-1.455-1.59-3.6-.09-1.065-.1-2.19-.09-3.15a11.771 11.771 0 0 1 .18-1.8zm7.425.315-1.89.63c1.62 1.83 2.415 5.325 2.64 7.71l1.965-.75a16.189 16.189 0 0 0 -2.715-7.595zm10.425 10.015a28.116 28.116 0 0 0 -3.27-3.285l-1.56 1.35a28.153 28.153 0 0 1 3.225 3.315zm-196.89 25.235v-1.56h7.125v1.56zm7.125-4.755v1.545h-7.125v-1.545zm0-3.195v1.545h-7.125v-1.545zm-3.24-1.71c.24-.54.48-1.125.705-1.725l-2.16-.24a16.976 16.976 0 0 1 -.405 1.965h-3.84v12.06h1.815v-.75h7.125v.735h1.9v-12.045zm13.035.54c1.155.3 4.47.99 5.97 1.185l.45-1.83a47.028 47.028 0 0 1 -5.94-1.155zm.57 1.185-2.01-.27a54.087 54.087 0 0 1 -.735 6.195l1.725.435a3.219 3.219 0 0 1 .555-.87 5.208 5.208 0 0 1 4.1-1.74c1.305 0 2.22.7 2.22 1.665 0 1.89-2.355 2.985-6.81 2.355l.57 1.95c6.18.54 8.325-1.545 8.325-4.26 0-1.8-1.515-3.405-4.125-3.405a7.284 7.284 0 0 0 -4.365 1.41c.1-.855.355-2.64.55-3.465zm17.94-1.425.015 1.92a41.113 41.113 0 0 0 6.375 0v-1.92a30.309 30.309 0 0 1 -6.39 0zm-.51 6.2a9.155 9.155 0 0 0 -.255 1.935c0 1.515 1.215 2.445 3.78 2.445a20.647 20.647 0 0 0 3.84-.3l-.045-2.01a17.12 17.12 0 0 1 -3.72.39c-1.5 0-2.07-.39-2.07-1.05a4.888 4.888 0 0 1 .18-1.245zm-3.855-7.35a11.1 11.1 0 0 1 -.15 1.455 41.188 41.188 0 0 0 -.615 5.88 18.963 18.963 0 0 0 .585 4.86l1.71-.12c-.015-.21-.015-.45-.03-.615a4.364 4.364 0 0 1 .09-.69 35.815 35.815 0 0 1 1.065-3.65l-.93-.72c-.21.48-.45.975-.66 1.5a7.168 7.168 0 0 1 -.06-.96 36.727 36.727 0 0 1 .72-5.445 12.483 12.483 0 0 1 .36-1.32zm22.345 10.36v-2.55h3.29v2.55zm-5.02-2.55h3.18v2.55h-3.18zm3.18-4.245v2.505h-3.18v-2.505zm5.13 0v2.505h-3.29v-2.505zm-3.285-1.8v-2.835h-1.845v2.835h-4.965v11.16h1.785v-.8h8.31v.78h1.875v-11.14zm15.36 8.955c-.87 0-1.5-.375-1.5-.93 0-.375.36-.7.915-.7.81 0 1.365.63 1.455 1.59a7.831 7.831 0 0 1 -.87.04zm3.27-10.71a7.164 7.164 0 0 1 -1.14.15c-.84.075-4.02.15-4.8.15-.42 0-.93-.03-1.35-.075l.06 1.935a9.8 9.8 0 0 1 1.215-.12c.78-.06 2.82-.15 3.585-.165-.735.645-2.28 1.89-3.105 2.58-.885.72-2.67 2.235-3.72 3.09l1.35 1.4c1.59-1.8 3.075-3.015 5.355-3.015 1.725 0 3.075.9 3.075 2.235a2.166 2.166 0 0 1 -1.215 2.025 2.991 2.991 0 0 0 -3.165-2.54 2.5 2.5 0 0 0 -2.67 2.31c0 1.485 1.56 2.43 3.63 2.43 3.585 0 5.37-1.86 5.37-4.2 0-2.16-1.92-3.735-4.44-3.735a5 5 0 0 0 -1.395.165c.93-.75 2.49-2.07 3.285-2.625q.5-.338 1.035-.675zm17.91.93a4.845 4.845 0 0 1 -1.395.165h-8.325a14.4 14.4 0 0 1 -1.725-.135v2.1c.315-.03 1.125-.105 1.725-.105h7.935a16.648 16.648 0 0 1 -3.81 4.32c-.945-.825-1.935-1.635-2.535-2.085l-1.59 1.275a31.907 31.907 0 0 1 3.3 2.88 41.677 41.677 0 0 1 2.865 3.24l1.755-1.4c-.585-.7-1.47-1.68-2.325-2.535a24.991 24.991 0 0 0 5.115-5.865 4.083 4.083 0 0 1 .51-.63zm4.935 6.09c.555-.045 1.56-.075 2.415-.075h8.055c.63 0 1.4.06 1.755.075v-2.355c-.39.03-1.065.09-1.755.09h-8.055c-.78 0-1.875-.045-2.415-.09zm20.79-4.845c.165-.39.3-.78.42-1.095s.315-.84.48-1.215l-2.31-.465a5.892 5.892 0 0 1 -.315 1.545 9.427 9.427 0 0 1 -.87 2.04 11.486 11.486 0 0 1 -2.6 3.09l1.89 1.14a12.3 12.3 0 0 0 2.415-3.15h3.165a7.992 7.992 0 0 1 -3.06 6.18 5.586 5.586 0 0 1 -1.425.84l2.025 1.35c2.715-1.71 4.275-4.38 4.545-8.37h2.1a15.505 15.505 0 0 1 1.56.06v-2.055a9.836 9.836 0 0 1 -1.56.1zm18.1.51-1.785.585a24.986 24.986 0 0 1 1.215 3.33l1.8-.63c-.205-.69-.94-2.64-1.225-3.285zm3.42.42a10.109 10.109 0 0 1 -1.9 5.145 10.093 10.093 0 0 1 -4.98 3.135l1.575 1.6a11.714 11.714 0 0 0 5.025-3.72 12.1 12.1 0 0 0 2.04-4.4c.09-.3.18-.615.36-1.095zm-6.9.375-1.8.645a30.3 30.3 0 0 1 1.365 3.465l1.83-.69c-.295-.84-1.015-2.655-1.39-3.42zm25.29 2.61a48.992 48.992 0 0 0 -6.27-2.325v-2.2a16.313 16.313 0 0 1 .135-1.815h-2.34a10.462 10.462 0 0 1 .15 1.815v8.61a16.051 16.051 0 0 1 -.15 2.085h2.34c-.06-.6-.135-1.65-.135-2.085v-4.25a43.326 43.326 0 0 1 5.415 2.235zm14.43-4.935a10.257 10.257 0 0 1 -1.365.9c-.705.39-1.995 1.05-3.21 1.755a34.829 34.829 0 0 1 -1.86-4.11l-1.875.765c.675 1.575 1.4 3.15 2.085 4.425-1.425 1.05-2.46 2.265-2.46 3.915 0 2.55 2.235 3.375 5.19 3.375a29.052 29.052 0 0 0 4.77-.36l.03-2.145a24.845 24.845 0 0 1 -4.86.54c-2.055 0-3.09-.57-3.09-1.635 0-1.035.825-1.89 2.07-2.7a45.493 45.493 0 0 1 4.14-2.2c.54-.27 1.02-.525 1.47-.8zm18.95 2.265a26.729 26.729 0 0 0 -3.66-2.01l-.96 1.47a19.805 19.805 0 0 1 3.57 2.115zm-5.6-2.28a15.69 15.69 0 0 1 -2 .465c.21-.8.39-1.545.51-2.025l-2.055-.21a12.647 12.647 0 0 1 -.4 2.49c-.45.03-.9.045-1.335.045a18.882 18.882 0 0 1 -1.98-.1l.135 1.74c.645.03 1.245.045 1.86.045.255 0 .51 0 .765-.015a22.664 22.664 0 0 1 -3.03 5.25l1.815.915a27.42 27.42 0 0 0 3.18-6.36 21.768 21.768 0 0 0 2.58-.51zm.36 8.265c0 .8-.33 1.38-1.335 1.38-.81 0-1.275-.375-1.275-.93 0-.525.555-.885 1.41-.885a5.257 5.257 0 0 1 1.2.15zm-.24-5.2c.045.9.12 2.2.165 3.315-.315-.03-.66-.06-1.005-.06-2.07 0-3.285 1.125-3.285 2.58 0 1.635 1.455 2.46 3.3 2.46 2.115 0 2.865-1.08 2.865-2.46v-.14a13.224 13.224 0 0 1 2.01 1.575l.99-1.59a9.9 9.9 0 0 0 -3.075-1.9c-.045-.735-.075-1.455-.09-1.875-.015-.66-.045-1.275 0-1.9zm21.96 4.47a3 3 0 0 1 -1.9 1.05c-.375 0-.57-.255-.57-.645 0-1.545.495-3.72.495-5.265a2.084 2.084 0 0 0 -2.34-2.19c-1.44 0-3.15 1.185-4.32 2.2a2.238 2.238 0 0 0 .03-.315c.255-.39.57-.87.765-1.125l-.555-.7c.12-.93.24-1.695.33-2.115l-2.175-.06a7.923 7.923 0 0 1 .06 1.32c0 .165-.03.585-.06 1.14-.63.09-1.275.165-1.71.195a12.633 12.633 0 0 1 -1.29.015l.18 1.905c.84-.105 1.98-.255 2.7-.345l-.06 1.035c-.84 1.245-2.34 3.225-3.18 4.245l1.17 1.65c.51-.7 1.23-1.8 1.875-2.745-.03 1.26-.03 2.115-.06 3.27 0 .24-.015.78-.045 1.095h2.04c-.03-.33-.09-.87-.1-1.14-.09-1.4-.09-2.64-.09-3.855 0-.375.015-.78.03-1.2 1.2-1.335 2.82-2.7 3.93-2.7.615 0 .99.36.99 1.095 0 1.35-.525 3.525-.525 5.145 0 1.425.75 2.25 1.86 2.25a3.932 3.932 0 0 0 2.79-1.125zm5.1-.78a2.43 2.43 0 1 0 2.43 2.43 2.436 2.436 0 0 0 -2.425-2.435zm0 3.765a1.343 1.343 0 1 1 1.35-1.335 1.338 1.338 0 0 1 -1.345 1.33z" transform="translate(-.462 93.047)"/><g fill="#db1d31"><path d="m0 18.413v-18.213h10.928v3.643h-7.285v3.642h7.285v3.643h-7.285v7.285zm7.285-7.285h3.643v3.642h-3.643zm3.643-7.285h3.642v3.642h-3.642zm0 10.928h3.642v3.643h-3.642z" transform="translate(157.886 147.785)"/><path d="m56.67 18.413v-14.57h3.643v3.642h7.287v-3.642h3.64v14.57h-3.64v-7.285h-7.287v7.285zm3.643-18.213v3.643h7.287v-3.643z" transform="translate(127.586 147.785)"/><path d="m117.133 11.128v7.285h-3.643v-18.213h3.643v7.285h3.643v3.643zm3.643-7.285h3.643v3.642h-3.643zm0 7.285h3.643v3.642h-3.643zm3.642-10.928h3.643v3.643h-3.643zm0 14.57h3.643v3.643h-3.643z" transform="translate(97.244 147.785)"/><path d="m170.07.2h3.643v14.57h-3.643zm10.93 18.213h-7.285v-3.643h7.285zm0-18.213h3.643v14.57h-3.643z" transform="translate(66.97 147.785)"/><path d="m237.578.2v7.285h-3.643v-3.642h-7.285v-3.643zm-10.928 18.213v-7.285h3.643v3.642h7.285v3.643zm3.643-10.928h3.643v3.643h-3.643z" transform="translate(36.421 147.785)"/><path d="m277.76 18.413v-14.57h3.64v3.642h7.285v-3.642h3.643v14.57h-3.643v-7.285h-7.285v7.285zm3.64-18.213v3.643h7.285v-3.643z" transform="translate(7.97 147.785)"/></g></svg>