<svg height="781.638" viewBox="0 0 1575.772 781.638" width="1575.772" xmlns="http://www.w3.org/2000/svg"><g fill="#fff"><path d="m15.912-23.494c.884 0 1.36-.1 1.6-.476l-3.5-2.754-1.9 2.686h-.552v-3.672c.952-.136 1.258-.374 1.326-.85l-6.086-.578v5.1h-5.44l.136.544zm10.71 7.14h-3.74v-7.14a45.153 45.153 0 0 0 8.058-1.564 4.572 4.572 0 0 0 1.224.2 1.562 1.562 0 0 0 1.054-.34l-4.93-3.91a28.784 28.784 0 0 1 -5.236 4.318l-4.9-1.5v10.2l-3.43-2.44-1.9 2.448h-1.84a39.7 39.7 0 0 0 4.624-5.406c.884 0 1.19-.2 1.292-.612l-5.644-1.258c-.17 2.108-.544 5.1-.952 7.276h-9.486l.136.544h5.882v4.726h-5.678l.136.544h4.658a28.641 28.641 0 0 1 -5.27 10.574l.306.442a26.449 26.449 0 0 0 5.848-4.488v7h.918c1.632 0 3.74-.918 3.74-1.292v-9.72a8.249 8.249 0 0 1 1.394 4.658 2.347 2.347 0 0 0 1.8.918 2.415 2.415 0 0 0 2.38-2.278c0-1.394-1.394-2.992-5.542-3.74l-.034.034v-2.108h4.692c.884 0 1.36-.1 1.6-.476l-3.4-2.754-1.87 2.686h-1.02v-4.148c.612-.1.816-.306.85-.578h4.318c.748 0 1.224-.068 1.5-.34v1.156c0 6.222-.408 12.58-4.692 17.578l.306.34c8.5-4.42 9.112-11.628 9.112-17.782v-1.224h2.414v19.04h.884c2.482 0 3.91-.986 3.944-1.258v-17.782h1.632c.918 0 1.428-.1 1.7-.476l-4.42-3.5zm-23.022-6.732a11.145 11.145 0 0 1 .65 3.876 8.943 8.943 0 0 1 -.17 1.938 2.159 2.159 0 0 0 1.9 1.156 2.446 2.446 0 0 0 2.38-2.448c0-1.394-1.122-3.128-4.42-4.658z" transform="translate(78.393 29.138)"/><path d="m14.45-24.106v3.672h-2.38l-5.17-2.006v15.946c4.08 0 4.93-1.632 4.93-1.87h10.17v1.664c3.74 0 5-1.292 5-1.36v-10.64a2.3 2.3 0 0 0 1.36-.714l-4.862-3.434-1.836 2.414h-2.21v-3.672h10.638c.952 0 1.428-.1 1.666-.476l-4.692-3.264-2.55 3.2h-5.066v-2.992c.918-.136 1.224-.408 1.292-.85l-6.29-.612v4.454h-11.934l.17.544zm7.55 7.99v3.3h-10.168v-3.3zm0-.544h-10.168v-3.23h10.168zm-10.168 4.386h10.168v3.366h-10.168zm14.178 7.208h-25.194l.17.544h30.532c.952 0 1.394-.1 1.632-.476l-4.624-3.23zm-15.47.544a28.5 28.5 0 0 1 -9.35 7.446l.136.34a36.943 36.943 0 0 0 12.58-4.08 3.882 3.882 0 0 0 .85.068 1.526 1.526 0 0 0 1.292-.476zm8.568 1.666a18.008 18.008 0 0 1 8.16 5.27 3.37 3.37 0 0 0 2.21.816c1.5 0 2.856-.952 2.856-2.142 0-1.8-3.026-4.08-13.09-4.318z" transform="translate(282.316 699.138)"/><path d="m12.07-2.482h.884c2.448 0 3.876-1.02 3.876-1.36v-1.326h14.314c.884 0 1.394-.1 1.632-.476l-4.318-3.128-2.346 3.06h-1.6v-4.9h4.624c.884 0 1.36-.1 1.632-.476l-4.046-2.89-2.176 2.822h-.034v-4.824h4.624c.884 0 1.36-.1 1.632-.476l-4.046-2.89-2.176 2.822h-.034v-4.76h5.848c.884 0 1.394-.1 1.632-.476l-4.216-3.026-2.312 2.958h-3.772a49.324 49.324 0 0 0 5-5c.918 0 1.224-.238 1.326-.68l-7.142-1.392c-.068 1.972-.272 4.828-.544 7.072h-3.026l-.646-.238a30.952 30.952 0 0 0 2.516-4.182c.918.034 1.292-.238 1.462-.646l-6.358-2.244c-1.19 5.338-3.468 10.744-5.68 13.804l.34.238a21.245 21.245 0 0 0 3.128-2.142zm4.76-8.67v-4.828h3.026v4.828zm3.026-5.372h-3.026v-4.76h3.026zm-3.026 10.812v-4.9h3.026v4.9zm-15.266-22.134a10.226 10.226 0 0 1 2.55 6.12 2.784 2.784 0 0 0 2.108.986 2.846 2.846 0 0 0 2.788-2.788c0-1.734-1.8-3.808-7.242-4.488zm4.726 10.846-2.21 2.958h-3.264l.136.612h3.672v10.3c-1.394.512-2.724.988-3.706 1.294l2.414 5.1a.832.832 0 0 0 .578-.85 62.7 62.7 0 0 0 4.9-6.256c2.21 5.27 4.794 6.358 11.356 6.358h10.03c.2-2.142 1.224-3.57 2.992-4.012v-.374c-4.25.1-9.316.136-13.056.136-6.358 0-8.6-.306-10.948-2.618v-8.126a2.966 2.966 0 0 0 1.8-.782z" transform="translate(1443.502 146.138)"/><path d="m27.132-21.76h-1.5v-5.814c.986-.136 1.224-.408 1.292-.884l-6.052-.578v7.276h-1.53l-4.556-1.8v2.754l-3.086-2.994-1.84 1.768v-5.576c.986-.136 1.292-.374 1.36-.85l-6.02-.578v7.582h-4.384l.17.544h8.568c-1.36 5-4.9 11.356-8.976 14.586l.272.272a26.825 26.825 0 0 0 4.386-2.72v12h.85c2.314.002 3.774-1.086 3.774-1.358v-14.45a10.186 10.186 0 0 1 1.5 5.2 2.4 2.4 0 0 0 1.87.986 2.4 2.4 0 0 0 1.56-.576v2.312c3.74 0 4.352-1.53 4.352-1.666v-1.326h1.734v10.88h.918c1.768 0 3.842-1.156 3.842-1.632v-9.248h1.8v2.482c3.366 0 4.59-1.088 4.59-1.122v-13.94a1.741 1.741 0 0 0 1.122-.612l-4.386-3.094zm-6.256 6.7h-1.734v-6.154h1.734zm-1.734.544h1.734v6.324h-1.734zm8.3-.544h-1.8v-6.154h1.8zm-1.8.544h1.8v6.324h-1.8zm-10.852 3.636a10.1 10.1 0 0 0 -4.93-2.21 28.628 28.628 0 0 0 4.284-6.358c.238-.034.476-.034.646-.068z" transform="translate(.316 425.138)"/><path d="m27.3-26.452h-12.238a16.3 16.3 0 0 0 -.476-2.21l-.442-.034a5.131 5.131 0 0 1 -3.944 4.352 2.558 2.558 0 0 0 -.748 1.666 1.762 1.762 0 0 0 1.36 1.632c-5.984 11.798-5.984 11.798-6.834 13.056-.442.68-.612.68-1.156.68v-.034s-.374.034-1.564.034v.61c1.938.17 2.516.68 2.516 3.774a23.36 23.36 0 0 1 -.442 4.386 2.174 2.174 0 0 0 2.142 1.8 3.147 3.147 0 0 0 3.332-3.36c0-2.89-1.462-3.944-1.564-5.848v-.136c0-2.176 2.618-10.3 4.114-14.824 1.734.2 4.046-1.054 3.74-5h6.6v1.666l-5.716-1.088c-.34 3.944-1.6 8.16-5.61 10.778l.2.442c6.052-1.972 8.84-5.576 9.962-9.418.612 0 .952-.068 1.156-.272v3.808c0 3.842.51 4.488 4.454 4.488h2.516c2.822 0 3.978-.748 3.978-2.38 0-.68-.136-.85-1.5-1.5l-.068-2.278h-.17c-1.088 2.38-1.564 2.38-2.176 2.38h-2.1c-.51 0-.51-.034-.51-.714v-5.916h1.5c-.136 1.428-.408 3.536-.578 4.76l.272.17c1.428-.918 3.57-2.55 4.862-3.57.714-.034 1.02-.136 1.292-.442l-3.88-3.706zm-25.158-1.972a10.492 10.492 0 0 1 2.55 5.134 2.643 2.643 0 0 0 1.87.816 2.617 2.617 0 0 0 2.618-2.482c0-1.564-1.7-3.332-6.834-3.638zm-1.428 8.534a8.488 8.488 0 0 1 1.768 5 2.526 2.526 0 0 0 1.938.986 2.573 2.573 0 0 0 2.55-2.448c0-1.428-1.5-3.094-6.052-3.706zm28.152 6.222-2.346 3.268h-3.23v-3.6c.884-.1 1.088-.374 1.156-.782l-5.916-.518v4.9h-8.636l.136.544h6.63a22.464 22.464 0 0 1 -7.684 10.706l.272.442a26.53 26.53 0 0 0 9.282-5.712v7.65c3.91 0 4.76-1.19 4.76-1.258v-11.084c1.19 4.726 3.094 8.194 6.358 10.506.612-2.414 1.87-3.944 3.638-4.42l.068-.374c-3.706-1.02-7.684-3.3-9.69-6.46h7.786c.918 0 1.394-.1 1.666-.476z" transform="translate(1542.316 596.138)"/><path d="m0 16v-16h16v3.282h-12.718v12.718z" transform="translate(0 578.138)"/><path d="m0 16v-16h16v3.282h-12.718v12.718z" transform="matrix(-1 0 0 -1 80 659.138)"/><path d="m0 16v-16h16v3.282h-12.718v12.718z" transform="matrix(0 1 -1 0 80 578.138)"/><path d="m0 16v-16h16v3.282h-12.718v12.718z" transform="matrix(0 -1 1 0 0 659.138)"/><path d="m0 16v-16h16v3.282h-12.718v12.718z" transform="translate(1296 16.138)"/><path d="m0 16v-16h16v3.282h-12.718v12.718z" transform="matrix(-1 0 0 -1 1376 97.138)"/><path d="m0 16v-16h16v3.282h-12.718v12.718z" transform="matrix(0 1 -1 0 1376 16.138)"/><path d="m0 16v-16h16v3.282h-12.718v12.718z" transform="matrix(0 -1 1 0 1296 97.138)"/><circle cx="194.502" cy="223.638" r="6.5"/><circle cx="194.502" cy="252.638" r="6.5"/><circle cx="194.502" cy="282.638" r="6.5"/><circle cx="194.502" cy="311.638" r="6.5"/><circle cx="194.502" cy="340.638" r="6.5"/><circle cx="6.5" cy="6.5" r="6.5" transform="matrix(0 -1 1 0 1332.502 781.638)"/><circle cx="6.5" cy="6.5" r="6.5" transform="matrix(0 -1 1 0 1361.502 781.638)"/><circle cx="6.5" cy="6.5" r="6.5" transform="matrix(0 -1 1 0 1391.502 781.638)"/><circle cx="6.5" cy="6.5" r="6.5" transform="matrix(0 -1 1 0 1420.502 781.638)"/><circle cx="6.5" cy="6.5" r="6.5" transform="matrix(0 -1 1 0 1449.502 781.638)"/><path d="m115.27 123.083 13.315-13.315v8.548l-4.766 4.766zm-18.6 0 31.919-31.92v8.548l-23.371 23.371zm-.081-18.524 13.471-13.476h8.548l-22.024 22.024zm0-13.476h3.411l-3.416 3.417z" transform="translate(91.418 401.055)"/><path d="m115.27 123.083 13.315-13.315v8.548l-4.766 4.766zm-18.6 0 31.919-31.92v8.548l-23.371 23.371zm-.081-18.524 13.471-13.476h8.548l-22.024 22.024zm0-13.476h3.411l-3.416 3.417z" transform="translate(1164.418 126.055)"/></g></svg>