<svg height="153.981" viewBox="0 0 1920 153.981" width="1920" xmlns="http://www.w3.org/2000/svg"><g fill="#fff"><path d="m13.373-128.132h64.75l84.5 85.183v-85.183h65.362v153.981h-65.366l-84.037-84.549v84.549h-65.209zm247.154 0h171.442v33.086h-101.794v26.889h86.946v31.09h-86.946v62.916h-69.649zm204.42 0h210.782v38.023h-70.72v115.958h-69.343v-115.958h-70.72z" transform="translate(1244.271 128.132)"/><path d="m41.9-13.089c11.794 0 21.112-1.681 27.835-5.754 6.487-3.879 10.733-10.085 10.733-19.523s-4.599-25.212-38.568-25.212c-31.255 0-38.332 13.641-38.332 25.212 0 9.438 4.246 15.645 10.733 19.523 7.667 4.655 18.047 5.754 27.599 5.754zm0-47.128c16.984 0 19.107 11.7 19.107 21.851 0 9.438-2.241 21.851-19.225 21.851-16.512 0-18.989-12.283-18.989-21.851.001-10.214 2.242-21.85 19.107-21.85zm101.9 13.059c0 5.624-1.415 6.594-6.6 6.594h-9.318v-15.062c0-2.78.354-3.3 4.128-3.3h11.2c6.487 0 7.666.646 10.851 7.693h7.313l-3.892-11.443h-57.788v3.168c8.492 0 9.554.711 9.554 5.56v31.225c0 4.784-.826 5.56-9.554 5.56v3.1h39.04v-3.1c-10.261 0-10.851-.646-10.851-5.56v-14.091h9.436c5.19 0 6.487.646 6.487 6.853h7.077v-17.2z" transform="translate(1057.311 82.903)"/><path d="m33.822-58.537c4.43 0 5.229.323 6.827 8.469h4.357l-1.743-12.348h-41.032l-1.816 12.348h4.43c1.6-8.081 2.324-8.469 6.754-8.469h5.447v36.073c0 4.849-.508 5.56-6.609 5.56v3.1h24.619v-3.1c-6.173 0-6.609-.711-6.609-5.56v-36.073zm73.713-3.879h-21.935v3.168c4.212 0 4.648.646 4.648 5.3v13.059h-18.227v-13.123c0-4.59.436-5.236 4.575-5.236v-3.168h-21.931v3.168c5.374 0 5.882.711 5.882 5.56v31.225c0 4.784-.508 5.56-5.882 5.56v3.1h21.935v-3.1c-4.14 0-4.575-.646-4.575-5.3v-14.936h18.225v14.934c0 4.655-.436 5.3-4.648 5.3v3.1h21.932v-3.1c-5.374 0-5.882-.776-5.882-5.56v-31.224c0-4.849.508-5.56 5.882-5.56zm50.691 36.849h-4.576c-1.888 7.305-2.76 8.016-6.9 8.016h-8.933c-1.452 0-2.033-.259-2.033-2.909v-16.614h6.173c3.2 0 3.849.517 3.849 6.788h4.357v-17.132h-4.357c0 5.689-.726 6.594-3.922 6.594h-6.1v-14.869c0-2.457.218-2.974 2.542-2.974h6.681c4.067 0 4.938.517 6.754 7.564h4.575l-2.324-11.313h-35.584v3.168c5.229 0 5.882.711 5.882 5.56v31.225c0 4.784-.654 5.56-5.882 5.56v3.1h37.4z" transform="translate(1060.465 145.478)"/><path d="m8.1 60.549h9.824v-74.228h27.476l22.919 74.228h9.824l-23.651-76.049c17.829-2.911 21.65-18.375 21.65-34.931 0-20.376-6.186-36.386-32.384-36.386h-35.658zm9.824-81.869v-57.672h25.288c18.557 0 23.287 9.824 23.287 28.563 0 18.011-4.366 29.109-23.105 29.109zm98.788 81.868h51.488v-7.822h-41.48v-64.767h33.657v-7.641h-33.659v-59.128h40.934v-8h-50.94zm88.054 0h33.111c28.563 0 36.75-18.557 36.75-43.845v-61.128c0-23.651-8.369-42.39-37.66-42.39h-32.2zm9.824-7.823v-131.535h22.377c22.559 0 27.653 13.645 27.653 35.112v59.31c0 20.012-3.457 37.114-27.289 37.114zm100.425 7.823h51.485v-7.822h-41.48v-64.767h33.657v-7.641h-33.655v-59.128h40.934v-8h-50.94zm88.054 0h9.824v-72.59h35.294v-7.641h-35.293v-59.309h40.934v-7.823h-50.758zm86.235 0h9.824v-147.363h-9.828zm53.669 0h8.733v-124.621l50.032 124.622h7.823v-147.364h-8.733v124.44l-50.028-124.44h-7.823zm110.25 0h9.824v-147.363h-9.824zm73.136 0h9.824v-139.358h28.745v-8h-68.041v8h29.473zm72.408 0h9.824v-147.363h-9.824zm86.962 2c28.745 0 36.386-18.557 36.386-43.663v-64.585c0-24.924-8.551-42.754-36.386-42.754-28.017 0-36.386 17.647-36.386 42.754v64.4c.001 25.111 7.642 43.85 36.387 43.85zm0-8.187c-21.286 0-26.38-13.463-26.38-33.475v-68.04c0-20.012 5.094-33.111 26.38-33.111s26.38 13.1 26.38 33.111v68.042c.001 20.012-5.275 33.475-26.379 33.475zm76.956 6.186h8.733v-124.62l50.032 124.622h7.823v-147.364h-8.733v124.44l-50.03-124.44h-7.823z" transform="translate(-8.1 88.452)"/></g></svg>