<svg height="189.512" viewBox="0 0 214.105 189.512" width="214.105" xmlns="http://www.w3.org/2000/svg" xmlns:xlink="http://www.w3.org/1999/xlink"><linearGradient id="a" gradientUnits="objectBoundingBox" x1=".5" x2=".5" y1="1"><stop offset="0" stop-color="#e62310"/><stop offset=".163" stop-color="#e72c0f"/><stop offset=".429" stop-color="#e9440b"/><stop offset=".762" stop-color="#ed6c05"/><stop offset="1" stop-color="#f08c00"/></linearGradient><path d="m1.015 9.871h4.261v-6.192c0-2.256-.376-4.813-.577-6.893h.125l1.831 4.086 4.612 9h4.562v-18.651h-4.261v6.167a58.8 58.8 0 0 0 .6 6.893h-.125l-1.829-4.136-4.637-8.924h-4.562zm19.9 0h4.487v-7.119h6.367v-3.735h-6.364v-4.086h7.42v-3.71h-11.907zm19.5 0h4.487v-14.94h5.064v-3.71h-14.584v3.71h5.038zm-39.4 25.492h4.011v-6.392a61.966 61.966 0 0 0 -.577-6.471h.1l1.5 4.462 2.532 6.818h2.457l2.507-6.818 1.555-4.462h.1a61.966 61.966 0 0 0 -.577 6.467v6.392h4.086v-18.646h-4.86l-2.858 8.047c-.351 1.078-.652 2.256-1.028 3.409h-.125c-.351-1.153-.652-2.331-1.028-3.409l-2.957-8.047h-4.838zm26.872-7.746.4-1.579c.476-1.855.978-4.036 1.429-5.991h.1c.5 1.905.978 4.136 1.479 5.991l.4 1.579zm5.74 7.746h4.713l-5.79-18.65h-5.365l-5.79 18.65h4.562l1.078-4.286h5.515zm11.907-15.116h2.005c2.131 0 3.259.577 3.259 2.331s-1.128 2.682-3.259 2.682h-2.005zm10.6 15.115-4.161-7.395a5.52 5.52 0 0 0 3.209-5.389c0-4.512-3.309-5.866-7.295-5.866h-6.84v18.65h4.487v-6.562h2.156l3.434 6.568zm3.409 0h4.487v-4.887l2.03-2.757 4.387 7.645h4.913l-6.693-11.18 5.64-7.47h-4.907l-5.289 7.37h-.075v-7.37h-4.49zm18.5 0h12.11v-3.762h-7.62v-3.958h6.242v-3.76h-6.242v-3.459h7.345v-3.71h-11.832zm20.154 0h4.487v-14.939h5.064v-3.71h-14.587v3.71h5.039zm13.185 0h4.487v-6.191h2.181c3.936 0 7.37-1.955 7.37-6.392 0-4.612-3.384-6.066-7.5-6.066h-6.543zm4.487-9.726v-5.389h1.83c2.156 0 3.359.652 3.359 2.532 0 1.83-1.053 2.858-3.234 2.858zm13.486 9.726h11.735v-3.762h-7.244v-14.887h-4.487zm19.628-7.746.4-1.579c.476-1.855.978-4.036 1.429-5.991h.1c.5 1.905.978 4.136 1.479 5.991l.4 1.579zm5.74 7.746h4.713l-5.79-18.65h-5.364l-5.79 18.65h4.562l1.078-4.286h5.515zm15.015.351a7.761 7.761 0 0 0 6.091-2.757l-2.356-2.808a4.847 4.847 0 0 1 -3.56 1.7c-2.632 0-4.337-2.156-4.337-5.866 0-3.635 1.98-5.791 4.387-5.791a4.626 4.626 0 0 1 3.234 1.454l2.356-2.858a7.945 7.945 0 0 0 -5.665-2.432c-4.738 0-8.9 3.56-8.9 9.776.005 6.324 4.012 9.583 8.753 9.583zm9.576-.351h12.107v-3.762h-7.621v-3.958h6.242v-3.76h-6.242v-3.459h7.345v-3.71h-11.828z" fill="#db1d31" opacity=".996" transform="translate(8.986 153.798)"/><path d="m121.389 78.937v-2.214h-32.367v2.208h-8.094v-7.058h-14.115v-7.146h-7.146v-7.147h-6.113v21.345h-8v-21.345h-6.2v7.146h-7.054v7.146h-14.207v7.059h-8.093v-8.093h7.141v-3.116h-17.141v-1.935h17.142v-2.006h14.2v-6.2h-21.342v-8h35.55v-6.11h-14.205v-36.414h14.206v-7.057h8v7.052h14.208v2.738h5.9v1.935h-5.9v31.739h-14.205v6.112h20.317v-7.058h7.057v-6.2h-7.057v-8h8v7.057h7.148v8.094h-7.145v6.112h7.148v2.2h8.632v1.935h-8.632v3.863h-21.263v6.2h14.115v7.057h7.148v3.948h32.368v-11.003h7.146v-43.757h-15.436v-1.935h15.438v-18.089h8.094v7.057h20.317v-7.057h8v7.057h20.317v-7.057h8v7.057h7.141v1.294h13.693v1.935h-13.69v4.776h-63.781v20.315h6.112v-14.114h8v14.114h7.141v8.094h-8.092v-7.148h-6.113v7.148h-7.057v21.263h-7.146v10.053h3.18v1.937h-3.18v2.214zm-82.039-57.674v14.114h20.317v-20.31h-20.317zm96.326 57.669v-8.094h28.324v-13.252h-21.266v-8h21.266v-28.323h8v14.114h6.2v-14.114h8v14.114h14.21v3.114h7.178v1.935h-7.178v3.044h-15.151v-7.147h-6.112v7.148h-7.147v6.112h21.263v8h-21.263v13.255h13.253v-7.057h8v7.057h7.153v8.094zm-125.676-35.461v-8.092h7.146v-2.656h-10.489v-1.935h10.49v-2.466h8.087v8h-7.141v7.146zm63.869-21.263v-8.092h7.057v-7.057h8.094v8h-7.148v7.146zm-56.722 0v-7.146h-7.147v-8h8.092v7.057h7.141v8.092z"/><ellipse cx="8.327" cy="8.327" fill="url(#a)" rx="8.327" ry="8.327" transform="translate(41.183 16.896)"/><rect fill="#db1d31" height="25.459" rx="8" width="40.371" x="160.041" y="135.25"/><path d="m4.8 5.9h4.37l4.547-14.461h-3.833l-2.725 10.788h-.164l-2.766-10.788h-4.047zm14.749-9.947q0-.038 0-.1t0-.12a1.913 1.913 0 0 1 .222-.906 1.728 1.728 0 0 1 .639-.676 1.863 1.863 0 0 1 .99-.251 1.938 1.938 0 0 1 .954.231 1.76 1.76 0 0 1 .66.623 1.65 1.65 0 0 1 .241.883 2.3 2.3 0 0 1 -.239 1.035 4.362 4.362 0 0 1 -.6.905q-.364.424-.746.815l-5.199 5.368v2.14h10.429v-2.754h-5.722v-.146l2.922-3.114q.6-.633 1.188-1.292a6.534 6.534 0 0 0 .991-1.457 4.088 4.088 0 0 0 .4-1.85 3.6 3.6 0 0 0 -.642-2.1 4.376 4.376 0 0 0 -1.812-1.47 6.5 6.5 0 0 0 -2.753-.542 6.133 6.133 0 0 0 -2.325.4 4.6 4.6 0 0 0 -1.613 1.063 4.377 4.377 0 0 0 -.943 1.475 4.59 4.59 0 0 0 -.309 1.644v.191z" fill="#fff" transform="translate(166.535 149.079)"/><path d="m0 17.845v-17.645h10.587v3.529h-7.058v3.529h7.058v3.529h-7.058v7.058zm7.058-7.058h3.529v3.529h-3.529zm3.529-7.058h3.529v3.529h-3.529zm0 10.587h3.529v3.529h-3.529z" transform="translate(9.998 96.401)"/><path d="m56.67 17.845v-14.116h3.53v3.529h7.058v-3.529h3.529v14.116h-3.53v-7.058h-7.057v7.058zm3.53-17.645v3.529h7.058v-3.529z" transform="translate(-10.705 96.401)"/><path d="m117.019 10.787v7.058h-3.529v-17.645h3.529v7.058h3.529v3.529zm3.529-7.058h3.529v3.529h-3.529zm0 7.058h3.529v3.529h-3.529zm3.529-10.587h3.529v3.529h-3.529zm0 14.116h3.529v3.529h-3.529z" transform="translate(-31.459 96.401)"/><path d="m170.07.2h3.53v14.116h-3.53zm10.587 17.645h-7.057v-3.529h7.058zm0-17.645h3.529v14.116h-3.529z" transform="translate(-52.129 96.401)"/><path d="m237.237.2v7.058h-3.529v-3.529h-7.058v-3.529zm-10.587 17.645v-7.058h3.529v3.529h7.058v3.529zm3.529-10.587h3.529v3.529h-3.529z" transform="translate(-72.797 96.401)"/><path d="m277.76 17.845v-14.116h3.529v3.529h7.058v-3.529h3.529v14.116h-3.529v-7.058h-7.058v7.058zm3.529-17.645v3.529h7.058v-3.529z" transform="translate(-91.469 96.401)"/></svg>