<svg height="28.39" viewBox="0 0 30 28.39" width="30" xmlns="http://www.w3.org/2000/svg" fill="currentColor"><path d="m14.9 0c3.917 0 7.833-.006 11.75 0a3.244 3.244 0 0 1 2.539 1 3.061 3.061 0 0 1 .794 1.827 3.429 3.429 0 0 1 -1.119 2.778c-1.1 1.16-2.142 2.365-3.214 3.547-.533.588-1.077 1.165-1.61 1.752-1.088 1.2-2.169 2.4-3.258 3.6-.557.613-1.129 1.212-1.678 1.831a.738.738 0 0 0 -.181.443c-.012 1.877-.027 3.755 0 5.632a1.772 1.772 0 0 1 -.783 1.559c-.914.69-1.8 1.42-2.7 2.13-.862.681-1.723 1.364-2.593 2.035a.948.948 0 0 1 -1.1.127 1.115 1.115 0 0 1 -.627-1.047c.009-3.315-.013-6.629.022-9.944a1.738 1.738 0 0 0 -.544-1.292q-1.286-1.378-2.572-2.778c-.683-.744-1.357-1.5-2.036-2.243q-1.414-1.557-2.829-3.107c-.679-.75-1.361-1.494-2.034-2.25a3.829 3.829 0 0 1 -1.064-1.85 3.066 3.066 0 0 1 .615-2.577 3.116 3.116 0 0 1 2.614-1.173q5.808 0 11.608 0" /></svg>