<svg height="30" viewBox="0 0 30.008 30" width="30.008" xmlns="http://www.w3.org/2000/svg"><g transform="matrix(-1 0 0 -1 30.008 30)"><ellipse cx="15.03" cy="15" fill="#fff" rx="14.978" ry="14.978"/><path d="m15 .833a14.167 14.167 0 0 0 -10.017 24.184 14.167 14.167 0 0 0 20.034-20.034 14.074 14.074 0 0 0 -10.017-4.15m0-.833a15 15 0 1 1 -15 15 15 15 0 0 1 15-15z"/><path d="m0 9.993v-9.013a.979.979 0 0 1 .98-.98h9.013a.98.98 0 0 1 0 1.959h-8.034v8.034a.98.98 0 0 1 -1.959 0z" transform="matrix(.70710678 -.70710678 .70710678 .70710678 6.07 15)"/><path d="m8.506 15h14" fill="none" stroke="#000" strokeLinecap="round" stroke-width="2"/></g></svg>